<svg width="64" height="30" viewBox="0 0 64 30" fill="none" xmlns="http://www.w3.org/2000/svg">
<path d="M15.532 16.04C16.996 16.352 18.172 17.084 19.06 18.236C19.948 19.364 20.392 20.66 20.392 22.124C20.392 24.236 19.648 25.916 18.16 27.164C16.696 28.388 14.644 29 12.004 29H0.232V3.728H11.608C14.176 3.728 16.18 4.316 17.62 5.492C19.084 6.668 19.816 8.264 19.816 10.28C19.816 11.768 19.42 13.004 18.628 13.988C17.86 14.972 16.828 15.656 15.532 16.04ZM6.388 13.952H10.42C11.428 13.952 12.196 13.736 12.724 13.304C13.276 12.848 13.552 12.188 13.552 11.324C13.552 10.46 13.276 9.8 12.724 9.344C12.196 8.888 11.428 8.66 10.42 8.66H6.388V13.952ZM10.924 24.032C11.956 24.032 12.748 23.804 13.3 23.348C13.876 22.868 14.164 22.184 14.164 21.296C14.164 20.408 13.864 19.712 13.264 19.208C12.688 18.704 11.884 18.452 10.852 18.452H6.388V24.032H10.924ZM42.8985 18.632C42.8985 19.208 42.8625 19.808 42.7905 20.432H28.8585C28.9545 21.68 29.3505 22.64 30.0465 23.312C30.7665 23.96 31.6425 24.284 32.6745 24.284C34.2105 24.284 35.2785 23.636 35.8785 22.34H42.4305C42.0945 23.66 41.4825 24.848 40.5945 25.904C39.7305 26.96 38.6385 27.788 37.3185 28.388C35.9985 28.988 34.5225 29.288 32.8905 29.288C30.9225 29.288 29.1705 28.868 27.6345 28.028C26.0985 27.188 24.8985 25.988 24.0345 24.428C23.1705 22.868 22.7385 21.044 22.7385 18.956C22.7385 16.868 23.1585 15.044 23.9985 13.484C24.8625 11.924 26.0625 10.724 27.5985 9.884C29.1345 9.044 30.8985 8.624 32.8905 8.624C34.8345 8.624 36.5625 9.032 38.0745 9.848C39.5865 10.664 40.7625 11.828 41.6025 13.34C42.4665 14.852 42.8985 16.616 42.8985 18.632ZM36.5985 17.012C36.5985 15.956 36.2385 15.116 35.5185 14.492C34.7985 13.868 33.8985 13.556 32.8185 13.556C31.7865 13.556 30.9105 13.856 30.1905 14.456C29.4945 15.056 29.0625 15.908 28.8945 17.012H36.5985ZM52.3021 2.36V29H46.1461V2.36H52.3021ZM59.8593 6.824C58.7793 6.824 57.8913 6.512 57.1953 5.888C56.5233 5.24 56.1873 4.448 56.1873 3.512C56.1873 2.552 56.5233 1.76 57.1953 1.136C57.8913 0.487998 58.7793 0.163998 59.8593 0.163998C60.9153 0.163998 61.7793 0.487998 62.4513 1.136C63.1473 1.76 63.4953 2.552 63.4953 3.512C63.4953 4.448 63.1473 5.24 62.4513 5.888C61.7793 6.512 60.9153 6.824 59.8593 6.824ZM62.9193 8.912V29H56.7633V8.912H62.9193Z" fill="black"/>
</svg>
