<svg width="567" height="353" viewBox="0 0 567 353" fill="none" xmlns="http://www.w3.org/2000/svg">
<g filter="url(#filter0_d_97_2)">
<rect x="110" y="118" width="453" height="227" rx="20" fill="#E8E35B"/>
</g>
<path d="M166.656 148.152C166.656 150.104 166.208 151.896 165.312 153.528C164.416 155.128 163.04 156.424 161.184 157.416C159.328 158.408 157.024 158.904 154.272 158.904H149.184V171H140.976V137.304H154.272C156.96 137.304 159.232 137.768 161.088 138.696C162.944 139.624 164.336 140.904 165.264 142.536C166.192 144.168 166.656 146.04 166.656 148.152ZM153.648 152.376C155.216 152.376 156.384 152.008 157.152 151.272C157.92 150.536 158.304 149.496 158.304 148.152C158.304 146.808 157.92 145.768 157.152 145.032C156.384 144.296 155.216 143.928 153.648 143.928H149.184V152.376H153.648ZM169.297 157.56C169.297 154.808 169.809 152.392 170.833 150.312C171.889 148.232 173.313 146.632 175.105 145.512C176.897 144.392 178.897 143.832 181.105 143.832C182.993 143.832 184.641 144.216 186.049 144.984C187.489 145.752 188.593 146.76 189.361 148.008V144.216H197.569V171H189.361V167.208C188.561 168.456 187.441 169.464 186.001 170.232C184.593 171 182.945 171.384 181.057 171.384C178.881 171.384 176.897 170.824 175.105 169.704C173.313 168.552 171.889 166.936 170.833 164.856C169.809 162.744 169.297 160.312 169.297 157.56ZM189.361 157.608C189.361 155.56 188.785 153.944 187.633 152.76C186.513 151.576 185.137 150.984 183.505 150.984C181.873 150.984 180.481 151.576 179.329 152.76C178.209 153.912 177.649 155.512 177.649 157.56C177.649 159.608 178.209 161.24 179.329 162.456C180.481 163.64 181.873 164.232 183.505 164.232C185.137 164.232 186.513 163.64 187.633 162.456C188.785 161.272 189.361 159.656 189.361 157.608ZM219.875 171L211.715 159.768V171H203.507V135.48H211.715V155.112L219.827 144.216H229.955L218.819 157.656L230.051 171H219.875ZM258.427 157.176C258.427 157.944 258.379 158.744 258.283 159.576H239.707C239.835 161.24 240.363 162.52 241.291 163.416C242.251 164.28 243.419 164.712 244.795 164.712C246.843 164.712 248.267 163.848 249.067 162.12H257.803C257.355 163.88 256.539 165.464 255.355 166.872C254.203 168.28 252.747 169.384 250.987 170.184C249.227 170.984 247.259 171.384 245.083 171.384C242.459 171.384 240.123 170.824 238.075 169.704C236.027 168.584 234.427 166.984 233.275 164.904C232.123 162.824 231.547 160.392 231.547 157.608C231.547 154.824 232.107 152.392 233.227 150.312C234.379 148.232 235.979 146.632 238.027 145.512C240.075 144.392 242.427 143.832 245.083 143.832C247.675 143.832 249.979 144.376 251.995 145.464C254.011 146.552 255.579 148.104 256.699 150.12C257.851 152.136 258.427 154.488 258.427 157.176ZM250.027 155.016C250.027 153.608 249.547 152.488 248.587 151.656C247.627 150.824 246.427 150.408 244.987 150.408C243.611 150.408 242.443 150.808 241.483 151.608C240.555 152.408 239.979 153.544 239.755 155.016H250.027ZM277.685 164.04V171H273.509C270.533 171 268.213 170.28 266.549 168.84C264.885 167.368 264.053 164.984 264.053 161.688V151.032H260.789V144.216H264.053V137.688H272.261V144.216H277.637V151.032H272.261V161.784C272.261 162.584 272.453 163.16 272.837 163.512C273.221 163.864 273.861 164.04 274.757 164.04H277.685ZM311.965 171L300.637 156.12V171H292.429V137.304H300.637V152.088L311.869 137.304H321.517L308.461 153.816L321.997 171H311.965ZM346.538 150.744V157.56H325.418V150.744H346.538ZM365.934 171.336C363.47 171.336 361.262 170.936 359.31 170.136C357.358 169.336 355.79 168.152 354.606 166.584C353.454 165.016 352.846 163.128 352.782 160.92H361.518C361.646 162.168 362.078 163.128 362.814 163.8C363.55 164.44 364.51 164.76 365.694 164.76C366.91 164.76 367.87 164.488 368.574 163.944C369.278 163.368 369.63 162.584 369.63 161.592C369.63 160.76 369.342 160.072 368.766 159.528C368.222 158.984 367.534 158.536 366.702 158.184C365.902 157.832 364.75 157.432 363.246 156.984C361.07 156.312 359.294 155.64 357.918 154.968C356.542 154.296 355.358 153.304 354.366 151.992C353.374 150.68 352.878 148.968 352.878 146.856C352.878 143.72 354.014 141.272 356.286 139.512C358.558 137.72 361.518 136.824 365.166 136.824C368.878 136.824 371.87 137.72 374.142 139.512C376.414 141.272 377.63 143.736 377.79 146.904H368.91C368.846 145.816 368.446 144.968 367.71 144.36C366.974 143.72 366.03 143.4 364.878 143.4C363.886 143.4 363.086 143.672 362.478 144.216C361.87 144.728 361.566 145.48 361.566 146.472C361.566 147.56 362.078 148.408 363.102 149.016C364.126 149.624 365.726 150.28 367.902 150.984C370.078 151.72 371.838 152.424 373.182 153.096C374.558 153.768 375.742 154.744 376.734 156.024C377.726 157.304 378.222 158.952 378.222 160.968C378.222 162.888 377.726 164.632 376.734 166.2C375.774 167.768 374.366 169.016 372.51 169.944C370.654 170.872 368.462 171.336 365.934 171.336ZM417.449 143.928C420.777 143.928 423.417 144.936 425.369 146.952C427.353 148.968 428.345 151.768 428.345 155.352V171H420.185V156.456C420.185 154.728 419.721 153.4 418.793 152.472C417.897 151.512 416.649 151.032 415.049 151.032C413.449 151.032 412.185 151.512 411.257 152.472C410.361 153.4 409.913 154.728 409.913 156.456V171H401.753V156.456C401.753 154.728 401.289 153.4 400.361 152.472C399.465 151.512 398.217 151.032 396.617 151.032C395.017 151.032 393.753 151.512 392.825 152.472C391.929 153.4 391.481 154.728 391.481 156.456V171H383.273V144.216H391.481V147.576C392.313 146.456 393.401 145.576 394.745 144.936C396.089 144.264 397.609 143.928 399.305 143.928C401.321 143.928 403.113 144.36 404.681 145.224C406.281 146.088 407.529 147.32 408.425 148.92C409.353 147.448 410.617 146.248 412.217 145.32C413.817 144.392 415.561 143.928 417.449 143.928ZM432.453 157.56C432.453 154.808 432.965 152.392 433.989 150.312C435.045 148.232 436.469 146.632 438.261 145.512C440.053 144.392 442.053 143.832 444.261 143.832C446.149 143.832 447.797 144.216 449.205 144.984C450.645 145.752 451.749 146.76 452.517 148.008V144.216H460.725V171H452.517V167.208C451.717 168.456 450.597 169.464 449.157 170.232C447.749 171 446.101 171.384 444.213 171.384C442.037 171.384 440.053 170.824 438.261 169.704C436.469 168.552 435.045 166.936 433.989 164.856C432.965 162.744 432.453 160.312 432.453 157.56ZM452.517 157.608C452.517 155.56 451.941 153.944 450.789 152.76C449.669 151.576 448.293 150.984 446.661 150.984C445.029 150.984 443.637 151.576 442.485 152.76C441.365 153.912 440.805 155.512 440.805 157.56C440.805 159.608 441.365 161.24 442.485 162.456C443.637 163.64 445.029 164.232 446.661 164.232C448.293 164.232 449.669 163.64 450.789 162.456C451.941 161.272 452.517 159.656 452.517 157.608ZM474.872 148.68C475.832 147.208 477.032 146.056 478.472 145.224C479.912 144.36 481.512 143.928 483.272 143.928V152.616H481.016C478.968 152.616 477.432 153.064 476.408 153.96C475.384 154.824 474.872 156.36 474.872 158.568V171H466.664V144.216H474.872V148.68ZM502.123 164.04V171H497.947C494.971 171 492.651 170.28 490.987 168.84C489.323 167.368 488.491 164.984 488.491 161.688V151.032H485.227V144.216H488.491V137.688H496.699V144.216H502.075V151.032H496.699V161.784C496.699 162.584 496.891 163.16 497.275 163.512C497.659 163.864 498.299 164.04 499.195 164.04H502.123Z" fill="black"/>
<g filter="url(#filter1_d_97_2)">
<ellipse cx="44" cy="157.5" rx="40" ry="39.5" fill="white"/>
</g>
<path d="M36.296 149.592V141.96H49.592V177H41.048V149.592H36.296Z" fill="black"/>
<path d="M242.728 217.252C241.072 217.252 239.584 216.964 238.264 216.388C236.968 215.788 235.948 214.972 235.204 213.94C234.46 212.884 234.076 211.672 234.052 210.304H237.544C237.664 211.48 238.144 212.476 238.984 213.292C239.848 214.084 241.096 214.48 242.728 214.48C244.288 214.48 245.512 214.096 246.4 213.328C247.312 212.536 247.768 211.528 247.768 210.304C247.768 209.344 247.504 208.564 246.976 207.964C246.448 207.364 245.788 206.908 244.996 206.596C244.204 206.284 243.136 205.948 241.792 205.588C240.136 205.156 238.804 204.724 237.796 204.292C236.812 203.86 235.96 203.188 235.24 202.276C234.544 201.34 234.196 200.092 234.196 198.532C234.196 197.164 234.544 195.952 235.24 194.896C235.936 193.84 236.908 193.024 238.156 192.448C239.428 191.872 240.88 191.584 242.512 191.584C244.864 191.584 246.784 192.172 248.272 193.348C249.784 194.524 250.636 196.084 250.828 198.028H247.228C247.108 197.068 246.604 196.228 245.716 195.508C244.828 194.764 243.652 194.392 242.188 194.392C240.82 194.392 239.704 194.752 238.84 195.472C237.976 196.168 237.544 197.152 237.544 198.424C237.544 199.336 237.796 200.08 238.3 200.656C238.828 201.232 239.464 201.676 240.208 201.988C240.976 202.276 242.044 202.612 243.412 202.996C245.068 203.452 246.4 203.908 247.408 204.364C248.416 204.796 249.28 205.48 250 206.416C250.72 207.328 251.08 208.576 251.08 210.16C251.08 211.384 250.756 212.536 250.108 213.616C249.46 214.696 248.5 215.572 247.228 216.244C245.956 216.916 244.456 217.252 242.728 217.252ZM263.713 191.908C266.449 191.908 268.813 192.424 270.805 193.456C272.821 194.464 274.357 195.916 275.413 197.812C276.493 199.708 277.033 201.94 277.033 204.508C277.033 207.076 276.493 209.308 275.413 211.204C274.357 213.076 272.821 214.516 270.805 215.524C268.813 216.508 266.449 217 263.713 217H255.901V191.908H263.713ZM263.713 214.3C266.953 214.3 269.425 213.448 271.129 211.744C272.833 210.016 273.685 207.604 273.685 204.508C273.685 201.388 272.821 198.952 271.093 197.2C269.389 195.448 266.929 194.572 263.713 194.572H259.177V214.3H263.713ZM284.738 212.464L280.706 222.148H278.51L281.138 212.464H284.738ZM296.447 217.252C294.791 217.252 293.303 216.964 291.983 216.388C290.687 215.788 289.667 214.972 288.923 213.94C288.179 212.884 287.795 211.672 287.771 210.304H291.263C291.383 211.48 291.863 212.476 292.703 213.292C293.567 214.084 294.815 214.48 296.447 214.48C298.007 214.48 299.231 214.096 300.119 213.328C301.031 212.536 301.487 211.528 301.487 210.304C301.487 209.344 301.223 208.564 300.695 207.964C300.167 207.364 299.507 206.908 298.715 206.596C297.923 206.284 296.855 205.948 295.511 205.588C293.855 205.156 292.523 204.724 291.515 204.292C290.531 203.86 289.679 203.188 288.959 202.276C288.263 201.34 287.915 200.092 287.915 198.532C287.915 197.164 288.263 195.952 288.959 194.896C289.655 193.84 290.627 193.024 291.875 192.448C293.147 191.872 294.599 191.584 296.231 191.584C298.583 191.584 300.503 192.172 301.991 193.348C303.503 194.524 304.355 196.084 304.547 198.028H300.947C300.827 197.068 300.323 196.228 299.435 195.508C298.547 194.764 297.371 194.392 295.907 194.392C294.539 194.392 293.423 194.752 292.559 195.472C291.695 196.168 291.263 197.152 291.263 198.424C291.263 199.336 291.515 200.08 292.019 200.656C292.547 201.232 293.183 201.676 293.927 201.988C294.695 202.276 295.763 202.612 297.131 202.996C298.787 203.452 300.119 203.908 301.127 204.364C302.135 204.796 302.999 205.48 303.719 206.416C304.439 207.328 304.799 208.576 304.799 210.16C304.799 211.384 304.475 212.536 303.827 213.616C303.179 214.696 302.219 215.572 300.947 216.244C299.675 216.916 298.175 217.252 296.447 217.252ZM335.072 192.088V217H331.796V198.424L323.516 217H321.212L312.896 198.388V217H309.62V192.088H313.148L322.364 212.68L331.58 192.088H335.072ZM357.403 199.252C357.403 201.34 356.683 203.08 355.243 204.472C353.827 205.84 351.655 206.524 348.727 206.524H343.903V217H340.627V191.908H348.727C351.559 191.908 353.707 192.592 355.171 193.96C356.659 195.328 357.403 197.092 357.403 199.252ZM348.727 203.824C350.551 203.824 351.895 203.428 352.759 202.636C353.623 201.844 354.055 200.716 354.055 199.252C354.055 196.156 352.279 194.608 348.727 194.608H343.903V203.824H348.727ZM364.859 212.464L360.827 222.148H358.631L361.259 212.464H364.859ZM376.568 217.252C374.912 217.252 373.424 216.964 372.104 216.388C370.808 215.788 369.788 214.972 369.044 213.94C368.3 212.884 367.916 211.672 367.892 210.304H371.384C371.504 211.48 371.984 212.476 372.824 213.292C373.688 214.084 374.936 214.48 376.568 214.48C378.128 214.48 379.352 214.096 380.24 213.328C381.152 212.536 381.608 211.528 381.608 210.304C381.608 209.344 381.344 208.564 380.816 207.964C380.288 207.364 379.628 206.908 378.836 206.596C378.044 206.284 376.976 205.948 375.632 205.588C373.976 205.156 372.644 204.724 371.636 204.292C370.652 203.86 369.8 203.188 369.08 202.276C368.384 201.34 368.036 200.092 368.036 198.532C368.036 197.164 368.384 195.952 369.08 194.896C369.776 193.84 370.748 193.024 371.996 192.448C373.268 191.872 374.72 191.584 376.352 191.584C378.704 191.584 380.624 192.172 382.112 193.348C383.624 194.524 384.476 196.084 384.668 198.028H381.068C380.948 197.068 380.444 196.228 379.556 195.508C378.668 194.764 377.492 194.392 376.028 194.392C374.66 194.392 373.544 194.752 372.68 195.472C371.816 196.168 371.384 197.152 371.384 198.424C371.384 199.336 371.636 200.08 372.14 200.656C372.668 201.232 373.304 201.676 374.048 201.988C374.816 202.276 375.884 202.612 377.252 202.996C378.908 203.452 380.24 203.908 381.248 204.364C382.256 204.796 383.12 205.48 383.84 206.416C384.56 207.328 384.92 208.576 384.92 210.16C384.92 211.384 384.596 212.536 383.948 213.616C383.3 214.696 382.34 215.572 381.068 216.244C379.796 216.916 378.296 217.252 376.568 217.252ZM415.193 192.088V217H411.917V198.424L403.637 217H401.333L393.017 198.388V217H389.741V192.088H393.269L402.485 212.68L411.701 192.088H415.193ZM435.581 211.42H424.637L422.621 217H419.165L428.237 192.052H432.017L441.053 217H437.597L435.581 211.42ZM434.645 208.756L430.109 196.084L425.573 208.756H434.645Z" fill="black"/>
<path d="M237.984 271L232.008 260.74H228.048V271H224.772V245.908H232.872C234.768 245.908 236.364 246.232 237.66 246.88C238.98 247.528 239.964 248.404 240.612 249.508C241.26 250.612 241.584 251.872 241.584 253.288C241.584 255.016 241.08 256.54 240.072 257.86C239.088 259.18 237.6 260.056 235.608 260.488L241.908 271H237.984ZM228.048 258.112H232.872C234.648 258.112 235.98 257.68 236.868 256.816C237.756 255.928 238.2 254.752 238.2 253.288C238.2 251.8 237.756 250.648 236.868 249.832C236.004 249.016 234.672 248.608 232.872 248.608H228.048V258.112ZM249.95 254.908C250.598 253.78 251.558 252.844 252.83 252.1C254.126 251.332 255.626 250.948 257.33 250.948C259.082 250.948 260.666 251.368 262.082 252.208C263.522 253.048 264.65 254.236 265.466 255.772C266.282 257.284 266.69 259.048 266.69 261.064C266.69 263.056 266.282 264.832 265.466 266.392C264.65 267.952 263.522 269.164 262.082 270.028C260.666 270.892 259.082 271.324 257.33 271.324C255.65 271.324 254.162 270.952 252.866 270.208C251.594 269.44 250.622 268.492 249.95 267.364V280.36H246.674V251.272H249.95V254.908ZM263.342 261.064C263.342 259.576 263.042 258.28 262.442 257.176C261.842 256.072 261.026 255.232 259.994 254.656C258.986 254.08 257.87 253.792 256.646 253.792C255.446 253.792 254.33 254.092 253.298 254.692C252.29 255.268 251.474 256.12 250.85 257.248C250.25 258.352 249.95 259.636 249.95 261.1C249.95 262.588 250.25 263.896 250.85 265.024C251.474 266.128 252.29 266.98 253.298 267.58C254.33 268.156 255.446 268.444 256.646 268.444C257.87 268.444 258.986 268.156 259.994 267.58C261.026 266.98 261.842 266.128 262.442 265.024C263.042 263.896 263.342 262.576 263.342 261.064ZM279.988 251.524C280.156 249.316 281.008 247.588 282.544 246.34C284.08 245.092 286.072 244.468 288.52 244.468C290.152 244.468 291.556 244.768 292.732 245.368C293.932 245.944 294.832 246.736 295.432 247.744C296.056 248.752 296.368 249.892 296.368 251.164C296.368 252.652 295.936 253.936 295.072 255.016C294.232 256.096 293.128 256.792 291.76 257.104V257.284C293.32 257.668 294.556 258.424 295.468 259.552C296.38 260.68 296.836 262.156 296.836 263.98C296.836 265.348 296.524 266.584 295.9 267.688C295.276 268.768 294.34 269.62 293.092 270.244C291.844 270.868 290.344 271.18 288.592 271.18C286.048 271.18 283.96 270.52 282.328 269.2C280.696 267.856 279.784 265.96 279.592 263.512H282.76C282.928 264.952 283.516 266.128 284.524 267.04C285.532 267.952 286.876 268.408 288.556 268.408C290.236 268.408 291.508 267.976 292.372 267.112C293.26 266.224 293.704 265.084 293.704 263.692C293.704 261.892 293.104 260.596 291.904 259.804C290.704 259.012 288.892 258.616 286.468 258.616H285.64V255.88H286.504C288.712 255.856 290.38 255.496 291.508 254.8C292.636 254.08 293.2 252.976 293.2 251.488C293.2 250.216 292.78 249.196 291.94 248.428C291.124 247.66 289.948 247.276 288.412 247.276C286.924 247.276 285.724 247.66 284.812 248.428C283.9 249.196 283.36 250.228 283.192 251.524H279.988ZM302.843 271.216C302.219 271.216 301.691 271 301.259 270.568C300.827 270.136 300.611 269.608 300.611 268.984C300.611 268.36 300.827 267.832 301.259 267.4C301.691 266.968 302.219 266.752 302.843 266.752C303.443 266.752 303.947 266.968 304.355 267.4C304.787 267.832 305.003 268.36 305.003 268.984C305.003 269.608 304.787 270.136 304.355 270.568C303.947 271 303.443 271.216 302.843 271.216ZM325.414 247.816H312.778V256.024C313.33 255.256 314.146 254.632 315.226 254.152C316.306 253.648 317.47 253.396 318.718 253.396C320.71 253.396 322.33 253.816 323.578 254.656C324.826 255.472 325.714 256.54 326.242 257.86C326.794 259.156 327.07 260.536 327.07 262C327.07 263.728 326.746 265.276 326.098 266.644C325.45 268.012 324.454 269.092 323.11 269.884C321.79 270.676 320.146 271.072 318.178 271.072C315.658 271.072 313.618 270.424 312.058 269.128C310.498 267.832 309.55 266.104 309.214 263.944H312.418C312.73 265.312 313.39 266.38 314.398 267.148C315.406 267.916 316.678 268.3 318.214 268.3C320.11 268.3 321.538 267.736 322.498 266.608C323.458 265.456 323.938 263.944 323.938 262.072C323.938 260.2 323.458 258.76 322.498 257.752C321.538 256.72 320.122 256.204 318.25 256.204C316.978 256.204 315.862 256.516 314.902 257.14C313.966 257.74 313.282 258.568 312.85 259.624H309.754V244.936H325.414V247.816ZM331.423 257.716C331.423 253.588 332.095 250.372 333.439 248.068C334.783 245.74 337.135 244.576 340.495 244.576C343.831 244.576 346.171 245.74 347.515 248.068C348.859 250.372 349.531 253.588 349.531 257.716C349.531 261.916 348.859 265.18 347.515 267.508C346.171 269.836 343.831 271 340.495 271C337.135 271 334.783 269.836 333.439 267.508C332.095 265.18 331.423 261.916 331.423 257.716ZM346.291 257.716C346.291 255.628 346.147 253.864 345.859 252.424C345.595 250.96 345.031 249.784 344.167 248.896C343.327 248.008 342.103 247.564 340.495 247.564C338.863 247.564 337.615 248.008 336.751 248.896C335.911 249.784 335.347 250.96 335.059 252.424C334.795 253.864 334.663 255.628 334.663 257.716C334.663 259.876 334.795 261.688 335.059 263.152C335.347 264.616 335.911 265.792 336.751 266.68C337.615 267.568 338.863 268.012 340.495 268.012C342.103 268.012 343.327 267.568 344.167 266.68C345.031 265.792 345.595 264.616 345.859 263.152C346.147 261.688 346.291 259.876 346.291 257.716ZM354.029 257.716C354.029 253.588 354.701 250.372 356.045 248.068C357.389 245.74 359.741 244.576 363.101 244.576C366.437 244.576 368.777 245.74 370.121 248.068C371.465 250.372 372.137 253.588 372.137 257.716C372.137 261.916 371.465 265.18 370.121 267.508C368.777 269.836 366.437 271 363.101 271C359.741 271 357.389 269.836 356.045 267.508C354.701 265.18 354.029 261.916 354.029 257.716ZM368.897 257.716C368.897 255.628 368.753 253.864 368.465 252.424C368.201 250.96 367.637 249.784 366.773 248.896C365.933 248.008 364.709 247.564 363.101 247.564C361.469 247.564 360.221 248.008 359.357 248.896C358.517 249.784 357.953 250.96 357.665 252.424C357.401 253.864 357.269 255.628 357.269 257.716C357.269 259.876 357.401 261.688 357.665 263.152C357.953 264.616 358.517 265.792 359.357 266.68C360.221 267.568 361.469 268.012 363.101 268.012C364.709 268.012 365.933 267.568 366.773 266.68C367.637 265.792 368.201 264.616 368.465 263.152C368.753 261.688 368.897 259.876 368.897 257.716ZM378.218 271.216C377.594 271.216 377.066 271 376.634 270.568C376.202 270.136 375.986 269.608 375.986 268.984C375.986 268.36 376.202 267.832 376.634 267.4C377.066 266.968 377.594 266.752 378.218 266.752C378.818 266.752 379.322 266.968 379.73 267.4C380.162 267.832 380.378 268.36 380.378 268.984C380.378 269.608 380.162 270.136 379.73 270.568C379.322 271 378.818 271.216 378.218 271.216ZM384.193 257.716C384.193 253.588 384.865 250.372 386.209 248.068C387.553 245.74 389.905 244.576 393.265 244.576C396.601 244.576 398.941 245.74 400.285 248.068C401.629 250.372 402.301 253.588 402.301 257.716C402.301 261.916 401.629 265.18 400.285 267.508C398.941 269.836 396.601 271 393.265 271C389.905 271 387.553 269.836 386.209 267.508C384.865 265.18 384.193 261.916 384.193 257.716ZM399.061 257.716C399.061 255.628 398.917 253.864 398.629 252.424C398.365 250.96 397.801 249.784 396.937 248.896C396.097 248.008 394.873 247.564 393.265 247.564C391.633 247.564 390.385 248.008 389.521 248.896C388.681 249.784 388.117 250.96 387.829 252.424C387.565 253.864 387.433 255.628 387.433 257.716C387.433 259.876 387.565 261.688 387.829 263.152C388.117 264.616 388.681 265.792 389.521 266.68C390.385 267.568 391.633 268.012 393.265 268.012C394.873 268.012 396.097 267.568 396.937 266.68C397.801 265.792 398.365 264.616 398.629 263.152C398.917 261.688 399.061 259.876 399.061 257.716ZM406.798 257.716C406.798 253.588 407.47 250.372 408.814 248.068C410.158 245.74 412.51 244.576 415.87 244.576C419.206 244.576 421.546 245.74 422.89 248.068C424.234 250.372 424.906 253.588 424.906 257.716C424.906 261.916 424.234 265.18 422.89 267.508C421.546 269.836 419.206 271 415.87 271C412.51 271 410.158 269.836 408.814 267.508C407.47 265.18 406.798 261.916 406.798 257.716ZM421.666 257.716C421.666 255.628 421.522 253.864 421.234 252.424C420.97 250.96 420.406 249.784 419.542 248.896C418.702 248.008 417.478 247.564 415.87 247.564C414.238 247.564 412.99 248.008 412.126 248.896C411.286 249.784 410.722 250.96 410.434 252.424C410.17 253.864 410.038 255.628 410.038 257.716C410.038 259.876 410.17 261.688 410.434 263.152C410.722 264.616 411.286 265.792 412.126 266.68C412.99 267.568 414.238 268.012 415.87 268.012C417.478 268.012 418.702 267.568 419.542 266.68C420.406 265.792 420.97 264.616 421.234 263.152C421.522 261.688 421.666 259.876 421.666 257.716ZM429.404 257.716C429.404 253.588 430.076 250.372 431.42 248.068C432.764 245.74 435.116 244.576 438.476 244.576C441.812 244.576 444.152 245.74 445.496 248.068C446.84 250.372 447.512 253.588 447.512 257.716C447.512 261.916 446.84 265.18 445.496 267.508C444.152 269.836 441.812 271 438.476 271C435.116 271 432.764 269.836 431.42 267.508C430.076 265.18 429.404 261.916 429.404 257.716ZM444.272 257.716C444.272 255.628 444.128 253.864 443.84 252.424C443.576 250.96 443.012 249.784 442.148 248.896C441.308 248.008 440.084 247.564 438.476 247.564C436.844 247.564 435.596 248.008 434.732 248.896C433.892 249.784 433.328 250.96 433.04 252.424C432.776 253.864 432.644 255.628 432.644 257.716C432.644 259.876 432.776 261.688 433.04 263.152C433.328 264.616 433.892 265.792 434.732 266.68C435.596 267.568 436.844 268.012 438.476 268.012C440.084 268.012 441.308 267.568 442.148 266.68C443.012 265.792 443.576 264.616 443.84 263.152C444.128 261.688 444.272 259.876 444.272 257.716Z" fill="black"/>
<g filter="url(#filter2_d_97_2)">
<rect x="284" y="283" width="102" height="50" rx="20" fill="white"/>
</g>
<path d="M319.532 306.04C320.996 306.352 322.172 307.084 323.06 308.236C323.948 309.364 324.392 310.66 324.392 312.124C324.392 314.236 323.648 315.916 322.16 317.164C320.696 318.388 318.644 319 316.004 319H304.232V293.728H315.608C318.176 293.728 320.18 294.316 321.62 295.492C323.084 296.668 323.816 298.264 323.816 300.28C323.816 301.768 323.42 303.004 322.628 303.988C321.86 304.972 320.828 305.656 319.532 306.04ZM310.388 303.952H314.42C315.428 303.952 316.196 303.736 316.724 303.304C317.276 302.848 317.552 302.188 317.552 301.324C317.552 300.46 317.276 299.8 316.724 299.344C316.196 298.888 315.428 298.66 314.42 298.66H310.388V303.952ZM314.924 314.032C315.956 314.032 316.748 313.804 317.3 313.348C317.876 312.868 318.164 312.184 318.164 311.296C318.164 310.408 317.864 309.712 317.264 309.208C316.688 308.704 315.884 308.452 314.852 308.452H310.388V314.032H314.924ZM346.898 308.632C346.898 309.208 346.862 309.808 346.79 310.432H332.858C332.954 311.68 333.35 312.64 334.046 313.312C334.766 313.96 335.642 314.284 336.674 314.284C338.21 314.284 339.278 313.636 339.878 312.34H346.43C346.094 313.66 345.482 314.848 344.594 315.904C343.73 316.96 342.638 317.788 341.318 318.388C339.998 318.988 338.522 319.288 336.89 319.288C334.922 319.288 333.17 318.868 331.634 318.028C330.098 317.188 328.898 315.988 328.034 314.428C327.17 312.868 326.738 311.044 326.738 308.956C326.738 306.868 327.158 305.044 327.998 303.484C328.862 301.924 330.062 300.724 331.598 299.884C333.134 299.044 334.898 298.624 336.89 298.624C338.834 298.624 340.562 299.032 342.074 299.848C343.586 300.664 344.762 301.828 345.602 303.34C346.466 304.852 346.898 306.616 346.898 308.632ZM340.598 307.012C340.598 305.956 340.238 305.116 339.518 304.492C338.798 303.868 337.898 303.556 336.818 303.556C335.786 303.556 334.91 303.856 334.19 304.456C333.494 305.056 333.062 305.908 332.894 307.012H340.598ZM356.302 292.36V319H350.146V292.36H356.302ZM363.859 296.824C362.779 296.824 361.891 296.512 361.195 295.888C360.523 295.24 360.187 294.448 360.187 293.512C360.187 292.552 360.523 291.76 361.195 291.136C361.891 290.488 362.779 290.164 363.859 290.164C364.915 290.164 365.779 290.488 366.451 291.136C367.147 291.76 367.495 292.552 367.495 293.512C367.495 294.448 367.147 295.24 366.451 295.888C365.779 296.512 364.915 296.824 363.859 296.824ZM366.919 298.912V319H360.763V298.912H366.919Z" fill="black"/>
<rect x="108" y="8" width="439" height="80" rx="20" fill="#FAD4D4"/>
<g filter="url(#filter3_d_97_2)">
<path d="M160.88 25.072V70H149.936V51.504H132.912V70H121.968V25.072H132.912V42.672H149.936V25.072H160.88ZM166.605 52.08C166.605 48.4107 167.287 45.1893 168.653 42.416C170.061 39.6427 171.959 37.5093 174.349 36.016C176.738 34.5227 179.405 33.776 182.349 33.776C184.866 33.776 187.063 34.288 188.941 35.312C190.861 36.336 192.333 37.68 193.357 39.344V34.288H204.301V70H193.357V64.944C192.29 66.608 190.797 67.952 188.877 68.976C186.999 70 184.802 70.512 182.285 70.512C179.383 70.512 176.738 69.7653 174.349 68.272C171.959 66.736 170.061 64.5813 168.653 61.808C167.287 58.992 166.605 55.7493 166.605 52.08ZM193.357 52.144C193.357 49.4133 192.589 47.2587 191.053 45.68C189.559 44.1013 187.725 43.312 185.549 43.312C183.373 43.312 181.517 44.1013 179.981 45.68C178.487 47.216 177.741 49.3493 177.741 52.08C177.741 54.8107 178.487 56.9867 179.981 58.608C181.517 60.1867 183.373 60.976 185.549 60.976C187.725 60.976 189.559 60.1867 191.053 58.608C192.589 57.0293 193.357 54.8747 193.357 52.144ZM223.162 40.24C224.442 38.2773 226.042 36.7413 227.962 35.632C229.882 34.48 232.015 33.904 234.362 33.904V45.488H231.354C228.623 45.488 226.575 46.0853 225.21 47.28C223.845 48.432 223.162 50.48 223.162 53.424V70H212.218V34.288H223.162V40.24ZM253.161 33.776C255.678 33.776 257.876 34.288 259.753 35.312C261.673 36.336 263.145 37.68 264.169 39.344V34.288H275.113V69.936C275.113 73.2213 274.452 76.1867 273.129 78.832C271.849 81.52 269.865 83.6533 267.177 85.232C264.532 86.8107 261.225 87.6 257.257 87.6C251.966 87.6 247.678 86.3413 244.393 83.824C241.108 81.3493 239.23 77.9787 238.761 73.712H249.577C249.918 75.0773 250.729 76.144 252.009 76.912C253.289 77.7227 254.868 78.128 256.745 78.128C259.006 78.128 260.798 77.4667 262.121 76.144C263.486 74.864 264.169 72.7947 264.169 69.936V64.88C263.102 66.544 261.63 67.9093 259.753 68.976C257.876 70 255.678 70.512 253.161 70.512C250.217 70.512 247.55 69.7653 245.161 68.272C242.772 66.736 240.873 64.5813 239.465 61.808C238.1 58.992 237.417 55.7493 237.417 52.08C237.417 48.4107 238.1 45.1893 239.465 42.416C240.873 39.6427 242.772 37.5093 245.161 36.016C247.55 34.5227 250.217 33.776 253.161 33.776ZM264.169 52.144C264.169 49.4133 263.401 47.2587 261.865 45.68C260.372 44.1013 258.537 43.312 256.361 43.312C254.185 43.312 252.329 44.1013 250.793 45.68C249.3 47.216 248.553 49.3493 248.553 52.08C248.553 54.8107 249.3 56.9867 250.793 58.608C252.329 60.1867 254.185 60.976 256.361 60.976C258.537 60.976 260.372 60.1867 261.865 58.608C263.401 57.0293 264.169 54.8747 264.169 52.144ZM280.855 52.08C280.855 48.4107 281.537 45.1893 282.903 42.416C284.311 39.6427 286.209 37.5093 288.599 36.016C290.988 34.5227 293.655 33.776 296.599 33.776C299.116 33.776 301.313 34.288 303.191 35.312C305.111 36.336 306.583 37.68 307.607 39.344V34.288H318.551V70H307.607V64.944C306.54 66.608 305.047 67.952 303.127 68.976C301.249 70 299.052 70.512 296.535 70.512C293.633 70.512 290.988 69.7653 288.599 68.272C286.209 66.736 284.311 64.5813 282.903 61.808C281.537 58.992 280.855 55.7493 280.855 52.08ZM307.607 52.144C307.607 49.4133 306.839 47.2587 305.303 45.68C303.809 44.1013 301.975 43.312 299.799 43.312C297.623 43.312 295.767 44.1013 294.231 45.68C292.737 47.216 291.991 49.3493 291.991 52.08C291.991 54.8107 292.737 56.9867 294.231 58.608C295.767 60.1867 297.623 60.976 299.799 60.976C301.975 60.976 303.809 60.1867 305.303 58.608C306.839 57.0293 307.607 54.8747 307.607 52.144ZM387.833 39.536C387.833 42.1387 387.236 44.528 386.041 46.704C384.846 48.8373 383.012 50.5653 380.537 51.888C378.062 53.2107 374.99 53.872 371.321 53.872H364.537V70H353.593V25.072H371.321C374.905 25.072 377.934 25.6907 380.409 26.928C382.884 28.1653 384.74 29.872 385.977 32.048C387.214 34.224 387.833 36.72 387.833 39.536ZM370.489 45.168C372.58 45.168 374.137 44.6773 375.161 43.696C376.185 42.7147 376.697 41.328 376.697 39.536C376.697 37.744 376.185 36.3573 375.161 35.376C374.137 34.3947 372.58 33.904 370.489 33.904H364.537V45.168H370.489ZM391.355 52.08C391.355 48.4107 392.037 45.1893 393.403 42.416C394.811 39.6427 396.709 37.5093 399.099 36.016C401.488 34.5227 404.155 33.776 407.099 33.776C409.616 33.776 411.813 34.288 413.691 35.312C415.611 36.336 417.083 37.68 418.107 39.344V34.288H429.051V70H418.107V64.944C417.04 66.608 415.547 67.952 413.627 68.976C411.749 70 409.552 70.512 407.035 70.512C404.133 70.512 401.488 69.7653 399.099 68.272C396.709 66.736 394.811 64.5813 393.403 61.808C392.037 58.992 391.355 55.7493 391.355 52.08ZM418.107 52.144C418.107 49.4133 417.339 47.2587 415.803 45.68C414.309 44.1013 412.475 43.312 410.299 43.312C408.123 43.312 406.267 44.1013 404.731 45.68C403.237 47.216 402.491 49.3493 402.491 52.08C402.491 54.8107 403.237 56.9867 404.731 58.608C406.267 60.1867 408.123 60.976 410.299 60.976C412.475 60.976 414.309 60.1867 415.803 58.608C417.339 57.0293 418.107 54.8747 418.107 52.144ZM458.792 70L447.912 55.024V70H436.968V22.64H447.912V48.816L458.728 34.288H472.232L457.384 52.208L472.36 70H458.792ZM510.194 51.568C510.194 52.592 510.131 53.6587 510.003 54.768H485.235C485.405 56.9867 486.109 58.6933 487.347 59.888C488.627 61.04 490.184 61.616 492.019 61.616C494.749 61.616 496.648 60.464 497.715 58.16H509.363C508.765 60.5067 507.677 62.6187 506.099 64.496C504.563 66.3733 502.621 67.8453 500.275 68.912C497.928 69.9787 495.304 70.512 492.403 70.512C488.904 70.512 485.789 69.7653 483.059 68.272C480.328 66.7787 478.195 64.6453 476.659 61.872C475.123 59.0987 474.355 55.856 474.355 52.144C474.355 48.432 475.101 45.1893 476.595 42.416C478.131 39.6427 480.264 37.5093 482.995 36.016C485.725 34.5227 488.861 33.776 492.403 33.776C495.859 33.776 498.931 34.5013 501.619 35.952C504.307 37.4027 506.397 39.472 507.891 42.16C509.427 44.848 510.194 47.984 510.194 51.568ZM498.995 48.688C498.995 46.8107 498.355 45.3173 497.075 44.208C495.795 43.0987 494.195 42.544 492.275 42.544C490.44 42.544 488.883 43.0773 487.603 44.144C486.365 45.2107 485.597 46.7253 485.299 48.688H498.995ZM535.872 60.72V70H530.304C526.336 70 523.243 69.04 521.024 67.12C518.805 65.1573 517.696 61.9787 517.696 57.584V43.376H513.344V34.288H517.696V25.584H528.64V34.288H535.808V43.376H528.64V57.712C528.64 58.7787 528.896 59.5467 529.408 60.016C529.92 60.4853 530.773 60.72 531.968 60.72H535.872Z" fill="black"/>
<path d="M160.88 25.072H161.88V24.072H160.88V25.072ZM160.88 70V71H161.88V70H160.88ZM149.936 70H148.936V71H149.936V70ZM149.936 51.504H150.936V50.504H149.936V51.504ZM132.912 51.504V50.504H131.912V51.504H132.912ZM132.912 70V71H133.912V70H132.912ZM121.968 70H120.968V71H121.968V70ZM121.968 25.072V24.072H120.968V25.072H121.968ZM132.912 25.072H133.912V24.072H132.912V25.072ZM132.912 42.672H131.912V43.672H132.912V42.672ZM149.936 42.672V43.672H150.936V42.672H149.936ZM149.936 25.072V24.072H148.936V25.072H149.936ZM159.88 25.072V70H161.88V25.072H159.88ZM160.88 69H149.936V71H160.88V69ZM150.936 70V51.504H148.936V70H150.936ZM149.936 50.504H132.912V52.504H149.936V50.504ZM131.912 51.504V70H133.912V51.504H131.912ZM132.912 69H121.968V71H132.912V69ZM122.968 70V25.072H120.968V70H122.968ZM121.968 26.072H132.912V24.072H121.968V26.072ZM131.912 25.072V42.672H133.912V25.072H131.912ZM132.912 43.672H149.936V41.672H132.912V43.672ZM150.936 42.672V25.072H148.936V42.672H150.936ZM149.936 26.072H160.88V24.072H149.936V26.072ZM168.653 42.416L167.761 41.9633L167.755 41.9743L168.653 42.416ZM174.348 36.016L174.878 36.864L174.348 36.016ZM188.94 35.312L188.462 36.1899L188.47 36.1943L188.94 35.312ZM193.356 39.344L192.505 39.8681L194.356 42.877V39.344H193.356ZM193.356 34.288V33.288H192.356V34.288H193.356ZM204.301 34.288H205.301V33.288H204.301V34.288ZM204.301 70V71H205.301V70H204.301ZM193.356 70H192.356V71H193.356V70ZM193.356 64.944H194.356V61.531L192.515 64.4043L193.356 64.944ZM188.877 68.976L188.406 68.0936L188.398 68.0981L188.877 68.976ZM174.348 68.272L173.808 69.1132L173.819 69.12L174.348 68.272ZM168.653 61.808L167.753 62.2443L167.757 62.2525L167.761 62.2607L168.653 61.808ZM191.053 45.68L190.326 46.3673L190.336 46.3774L191.053 45.68ZM179.98 45.68L179.264 44.9826L179.264 44.9829L179.98 45.68ZM179.98 58.608L179.245 59.2855L179.254 59.2955L179.264 59.3054L179.98 58.608ZM191.053 58.608L190.336 57.9106L190.326 57.9208L191.053 58.608ZM167.604 52.08C167.604 48.5354 168.264 45.4702 169.55 42.8577L167.755 41.9743C166.311 44.9085 165.604 48.2859 165.604 52.08H167.604ZM169.544 42.8687C170.879 40.2402 172.659 38.2511 174.878 36.864L173.819 35.168C171.259 36.7676 169.242 39.0451 167.761 41.9633L169.544 42.8687ZM174.878 36.864C177.102 35.4746 179.583 34.776 182.349 34.776V32.776C179.226 32.776 176.374 33.5708 173.819 35.168L174.878 36.864ZM182.349 34.776C184.728 34.776 186.755 35.2591 188.462 36.1899L189.419 34.4341C187.371 33.3169 185.003 32.776 182.349 32.776V34.776ZM188.47 36.1943C190.252 37.1446 191.584 38.3719 192.505 39.8681L194.208 38.8199C193.081 36.9881 191.469 35.5274 189.411 34.4296L188.47 36.1943ZM194.356 39.344V34.288H192.356V39.344H194.356ZM193.356 35.288H204.301V33.288H193.356V35.288ZM203.301 34.288V70H205.301V34.288H203.301ZM204.301 69H193.356V71H204.301V69ZM194.356 70V64.944H192.356V70H194.356ZM192.515 64.4043C191.549 65.91 190.19 67.1419 188.406 68.0936L189.347 69.8584C191.403 68.7621 193.03 67.306 194.198 65.4837L192.515 64.4043ZM188.398 68.0981C186.691 69.0289 184.664 69.512 182.285 69.512V71.512C184.939 71.512 187.307 70.9711 189.355 69.8539L188.398 68.0981ZM182.285 69.512C179.565 69.512 177.104 68.8149 174.878 67.424L173.819 69.12C176.372 70.7157 179.202 71.512 182.285 71.512V69.512ZM174.889 67.4308C172.663 65.9998 170.88 63.9858 169.544 61.3553L167.761 62.2607C169.241 65.1769 171.255 67.4722 173.808 69.1132L174.889 67.4308ZM169.552 61.3717C168.263 58.7133 167.604 55.6241 167.604 52.08H165.604C165.604 55.8745 166.311 59.2707 167.753 62.2443L169.552 61.3717ZM194.356 52.144C194.356 49.2187 193.528 46.7904 191.769 44.9826L190.336 46.3774C191.649 47.7269 192.356 49.6079 192.356 52.144H194.356ZM191.779 44.9928C190.096 43.2142 187.999 42.312 185.549 42.312V44.312C187.45 44.312 189.022 44.9885 190.326 46.3672L191.779 44.9928ZM185.549 42.312C183.099 42.312 180.985 43.2132 179.264 44.9826L180.697 46.3774C182.048 44.9895 183.646 44.312 185.549 44.312V42.312ZM179.264 44.9829C177.543 46.7531 176.741 49.1637 176.741 52.08H178.741C178.741 49.535 179.432 47.6789 180.697 46.3771L179.264 44.9829ZM176.741 52.08C176.741 54.999 177.543 57.438 179.245 59.2855L180.716 57.9305C179.431 56.5353 178.741 54.6224 178.741 52.08H176.741ZM179.264 59.3054C180.985 61.0748 183.099 61.976 185.549 61.976V59.976C183.646 59.976 182.048 59.2985 180.697 57.9106L179.264 59.3054ZM185.549 61.976C187.999 61.976 190.096 61.0738 191.779 59.2952L190.326 57.9208C189.022 59.2995 187.45 59.976 185.549 59.976V61.976ZM191.769 59.3054C193.528 57.4976 194.356 55.0693 194.356 52.144H192.356C192.356 54.6801 191.649 56.5611 190.336 57.9106L191.769 59.3054ZM223.162 40.24H222.162V43.6039L224 40.7863L223.162 40.24ZM227.962 35.632L228.462 36.4979L228.469 36.4937L228.477 36.4895L227.962 35.632ZM234.362 33.904H235.362V32.904H234.362V33.904ZM234.362 45.488V46.488H235.362V45.488H234.362ZM225.21 47.28L225.855 48.0443L225.862 48.0385L225.869 48.0326L225.21 47.28ZM223.162 70V71H224.162V70H223.162ZM212.218 70H211.218V71H212.218V70ZM212.218 34.288V33.288H211.218V34.288H212.218ZM223.162 34.288H224.162V33.288H223.162V34.288ZM224 40.7863C225.199 38.9475 226.686 37.5242 228.462 36.4979L227.462 34.7661C225.398 35.9585 223.685 37.6072 222.324 39.6937L224 40.7863ZM228.477 36.4895C230.233 35.4353 232.187 34.904 234.362 34.904V32.904C231.843 32.904 229.531 33.5247 227.448 34.7745L228.477 36.4895ZM233.362 33.904V45.488H235.362V33.904H233.362ZM234.362 44.488H231.354V46.488H234.362V44.488ZM231.354 44.488C228.5 44.488 226.172 45.1095 224.551 46.5274L225.869 48.0326C226.979 47.0611 228.747 46.488 231.354 46.488V44.488ZM224.565 46.5157C222.863 47.9518 222.162 50.3717 222.162 53.424H224.162C224.162 50.5883 224.826 48.9122 225.855 48.0443L224.565 46.5157ZM222.162 53.424V70H224.162V53.424H222.162ZM223.162 69H212.218V71H223.162V69ZM213.218 70V34.288H211.218V70H213.218ZM212.218 35.288H223.162V33.288H212.218V35.288ZM222.162 34.288V40.24H224.162V34.288H222.162ZM259.753 35.312L259.274 36.1899L259.282 36.1943L259.753 35.312ZM264.169 39.344L263.317 39.8681L265.169 42.877V39.344H264.169ZM264.169 34.288V33.288H263.169V34.288H264.169ZM275.113 34.288H276.113V33.288H275.113V34.288ZM273.129 78.832L272.235 78.3848L272.23 78.3934L272.226 78.4021L273.129 78.832ZM267.177 85.232L266.671 84.3697L266.665 84.3733L267.177 85.232ZM244.393 83.824L245.001 83.0302L244.995 83.0252L244.393 83.824ZM238.761 73.712V72.712H237.645L237.767 73.8213L238.761 73.712ZM249.577 73.712L250.547 73.4695L250.358 72.712H249.577V73.712ZM252.009 76.912L252.544 76.0672L252.534 76.0607L252.523 76.0545L252.009 76.912ZM262.121 76.144L261.437 75.4145L261.425 75.4255L261.414 75.4369L262.121 76.144ZM264.169 64.88H265.169V61.467L263.327 64.3403L264.169 64.88ZM259.753 68.976L260.232 69.8539L260.239 69.8497L260.247 69.8455L259.753 68.976ZM245.161 68.272L244.62 69.1132L244.631 69.12L245.161 68.272ZM239.465 61.808L238.565 62.2443L238.569 62.2525L238.573 62.2607L239.465 61.808ZM239.465 42.416L238.573 41.9633L238.568 41.9743L239.465 42.416ZM245.161 36.016L245.691 36.864L245.161 36.016ZM261.865 45.68L261.138 46.3673L261.148 46.3774L261.865 45.68ZM250.793 45.68L250.076 44.9826L250.076 44.9829L250.793 45.68ZM250.793 58.608L250.057 59.2855L250.067 59.2955L250.076 59.3054L250.793 58.608ZM261.865 58.608L261.148 57.9106L261.139 57.9208L261.865 58.608ZM253.161 34.776C255.541 34.776 257.568 35.2591 259.274 36.1899L260.232 34.4341C258.184 33.3169 255.816 32.776 253.161 32.776V34.776ZM259.282 36.1943C261.064 37.1446 262.397 38.3719 263.317 39.8681L265.021 38.8199C263.893 36.9881 262.282 35.5274 260.224 34.4296L259.282 36.1943ZM265.169 39.344V34.288H263.169V39.344H265.169ZM264.169 35.288H275.113V33.288H264.169V35.288ZM274.113 34.288V69.936H276.113V34.288H274.113ZM274.113 69.936C274.113 73.0835 273.48 75.8931 272.235 78.3848L274.023 79.2792C275.423 76.4802 276.113 73.3592 276.113 69.936H274.113ZM272.226 78.4021C271.036 80.9008 269.195 82.8873 266.671 84.3697L267.683 86.0943C270.535 84.4194 272.662 82.1392 274.032 79.2619L272.226 78.4021ZM266.665 84.3733C264.213 85.8364 261.096 86.6 257.257 86.6V88.6C261.354 88.6 264.851 87.7849 267.689 86.0907L266.665 84.3733ZM257.257 86.6C252.124 86.6 248.069 85.3805 245.001 83.0302L243.785 84.6178C247.288 87.3021 251.808 88.6 257.257 88.6V86.6ZM244.995 83.0252C241.94 80.7244 240.196 77.6087 239.755 73.6027L237.767 73.8213C238.265 78.3486 240.275 81.9742 243.791 84.6228L244.995 83.0252ZM238.761 74.712H249.577V72.712H238.761V74.712ZM248.607 73.9545C249.017 75.594 250.002 76.8742 251.495 77.7695L252.523 76.0545C251.456 75.4138 250.82 74.5607 250.547 73.4695L248.607 73.9545ZM251.474 77.7568C252.948 78.6906 254.723 79.128 256.745 79.128V77.128C255.012 77.128 253.63 76.7547 252.544 76.0672L251.474 77.7568ZM256.745 79.128C259.212 79.128 261.28 78.3994 262.828 76.8511L261.414 75.4369C260.317 76.534 258.8 77.128 256.745 77.128V79.128ZM262.805 76.8735C264.457 75.3243 265.169 72.9266 265.169 69.936H263.169C263.169 72.6627 262.515 74.4037 261.437 75.4145L262.805 76.8735ZM265.169 69.936V64.88H263.169V69.936H265.169ZM263.327 64.3403C262.356 65.8555 261.009 67.1124 259.259 68.1065L260.247 69.8455C262.252 68.7062 263.849 67.2325 265.011 65.4197L263.327 64.3403ZM259.274 68.0981C257.568 69.0289 255.541 69.512 253.161 69.512V71.512C255.816 71.512 258.184 70.9711 260.232 69.8539L259.274 68.0981ZM253.161 69.512C250.396 69.512 247.914 68.8134 245.691 67.424L244.631 69.12C247.187 70.7172 250.038 71.512 253.161 71.512V69.512ZM245.702 67.4308C243.476 65.9998 241.692 63.9858 240.357 61.3553L238.573 62.2607C240.054 65.1769 242.068 67.4722 244.62 69.1132L245.702 67.4308ZM240.365 61.3717C239.076 58.7133 238.417 55.6241 238.417 52.08H236.417C236.417 55.8745 237.123 59.2707 238.565 62.2443L240.365 61.3717ZM238.417 52.08C238.417 48.5354 239.076 45.4702 240.362 42.8577L238.568 41.9743C237.123 44.9085 236.417 48.2859 236.417 52.08H238.417ZM240.357 42.8687C241.691 40.2402 243.472 38.2511 245.691 36.864L244.631 35.168C242.072 36.7676 240.055 39.0451 238.573 41.9633L240.357 42.8687ZM245.691 36.864C247.914 35.4746 250.396 34.776 253.161 34.776V32.776C250.038 32.776 247.187 33.5708 244.631 35.168L245.691 36.864ZM265.169 52.144C265.169 49.2187 264.341 46.7904 262.582 44.9826L261.148 46.3774C262.461 47.7269 263.169 49.6079 263.169 52.144H265.169ZM262.591 44.9928C260.909 43.2142 258.811 42.312 256.361 42.312V44.312C258.263 44.312 259.834 44.9885 261.139 46.3672L262.591 44.9928ZM256.361 42.312C253.911 42.312 251.798 43.2132 250.076 44.9826L251.51 46.3774C252.86 44.9895 254.459 44.312 256.361 44.312V42.312ZM250.076 44.9829C248.355 46.7531 247.553 49.1637 247.553 52.08H249.553C249.553 49.535 250.244 47.6789 251.51 46.3771L250.076 44.9829ZM247.553 52.08C247.553 54.999 248.356 57.438 250.057 59.2855L251.529 57.9305C250.243 56.5353 249.553 54.6224 249.553 52.08H247.553ZM250.076 59.3054C251.798 61.0748 253.911 61.976 256.361 61.976V59.976C254.459 59.976 252.86 59.2985 251.51 57.9106L250.076 59.3054ZM256.361 61.976C258.811 61.976 260.909 61.0738 262.591 59.2952L261.139 57.9208C259.834 59.2995 258.263 59.976 256.361 59.976V61.976ZM262.582 59.3054C264.341 57.4976 265.169 55.0693 265.169 52.144H263.169C263.169 54.6801 262.461 56.5611 261.148 57.9106L262.582 59.3054ZM282.902 42.416L282.011 41.9633L282.005 41.9743L282.902 42.416ZM288.598 36.016L289.128 36.864L288.598 36.016ZM303.191 35.312L302.712 36.1899L302.72 36.1943L303.191 35.312ZM307.607 39.344L306.755 39.8681L308.607 42.877V39.344H307.607ZM307.607 34.288V33.288H306.607V34.288H307.607ZM318.551 34.288H319.551V33.288H318.551V34.288ZM318.551 70V71H319.551V70H318.551ZM307.607 70H306.607V71H307.607V70ZM307.607 64.944H308.607V61.531L306.765 64.4043L307.607 64.944ZM303.126 68.976L302.656 68.0936L302.648 68.0981L303.126 68.976ZM288.598 68.272L288.058 69.1132L288.068 69.12L288.598 68.272ZM282.902 61.808L282.003 62.2443L282.007 62.2525L282.011 62.2607L282.902 61.808ZM305.303 45.68L304.576 46.3673L304.586 46.3774L305.303 45.68ZM294.23 45.68L293.514 44.9826L293.514 44.9829L294.23 45.68ZM294.23 58.608L293.495 59.2855L293.504 59.2955L293.514 59.3054L294.23 58.608ZM305.303 58.608L304.586 57.9106L304.576 57.9208L305.303 58.608ZM281.855 52.08C281.855 48.5354 282.514 45.4702 283.8 42.8577L282.005 41.9743C280.561 44.9085 279.855 48.2859 279.855 52.08H281.855ZM283.794 42.8687C285.129 40.2402 286.909 38.2511 289.128 36.864L288.068 35.168C285.509 36.7676 283.492 39.0451 282.011 41.9633L283.794 42.8687ZM289.128 36.864C291.352 35.4746 293.833 34.776 296.598 34.776V32.776C293.476 32.776 290.624 33.5708 288.068 35.168L289.128 36.864ZM296.598 34.776C298.978 34.776 301.005 35.2591 302.712 36.1899L303.669 34.4341C301.621 33.3169 299.253 32.776 296.598 32.776V34.776ZM302.72 36.1943C304.502 37.1446 305.834 38.3719 306.755 39.8681L308.458 38.8199C307.331 36.9881 305.719 35.5274 303.661 34.4296L302.72 36.1943ZM308.607 39.344V34.288H306.607V39.344H308.607ZM307.607 35.288H318.551V33.288H307.607V35.288ZM317.551 34.288V70H319.551V34.288H317.551ZM318.551 69H307.607V71H318.551V69ZM308.607 70V64.944H306.607V70H308.607ZM306.765 64.4043C305.799 65.91 304.44 67.1419 302.656 68.0936L303.597 69.8584C305.653 68.7621 307.28 67.306 308.448 65.4837L306.765 64.4043ZM302.648 68.0981C300.941 69.0289 298.914 69.512 296.535 69.512V71.512C299.189 71.512 301.557 70.9711 303.605 69.8539L302.648 68.0981ZM296.535 69.512C293.815 69.512 291.354 68.8149 289.128 67.424L288.068 69.12C290.622 70.7157 293.452 71.512 296.535 71.512V69.512ZM289.139 67.4308C286.913 65.9998 285.13 63.9858 283.794 61.3553L282.011 62.2607C283.491 65.1769 285.505 67.4722 288.058 69.1132L289.139 67.4308ZM283.802 61.3717C282.513 58.7133 281.855 55.6241 281.855 52.08H279.855C279.855 55.8745 280.561 59.2707 282.003 62.2443L283.802 61.3717ZM308.607 52.144C308.607 49.2187 307.778 46.7904 306.019 44.9826L304.586 46.3774C305.899 47.7269 306.607 49.6079 306.607 52.144H308.607ZM306.029 44.9928C304.346 43.2142 302.249 42.312 299.798 42.312V44.312C301.7 44.312 303.272 44.9885 304.576 46.3672L306.029 44.9928ZM299.798 42.312C297.349 42.312 295.235 43.2132 293.514 44.9826L294.947 46.3774C296.298 44.9895 297.896 44.312 299.798 44.312V42.312ZM293.514 44.9829C291.793 46.7531 290.99 49.1637 290.99 52.08H292.99C292.99 49.535 293.682 47.6789 294.947 46.3771L293.514 44.9829ZM290.99 52.08C290.99 54.999 291.793 57.438 293.495 59.2855L294.966 57.9305C293.681 56.5353 292.99 54.6224 292.99 52.08H290.99ZM293.514 59.3054C295.235 61.0748 297.349 61.976 299.798 61.976V59.976C297.896 59.976 296.298 59.2985 294.947 57.9106L293.514 59.3054ZM299.798 61.976C302.249 61.976 304.346 61.0738 306.029 59.2952L304.576 57.9208C303.272 59.2995 301.7 59.976 299.798 59.976V61.976ZM306.019 59.3054C307.778 57.4976 308.607 55.0693 308.607 52.144H306.607C306.607 54.6801 305.899 56.5611 304.586 57.9106L306.019 59.3054ZM386.041 46.704L386.914 47.1926L386.918 47.1853L386.041 46.704ZM380.537 51.888L380.066 51.0061L380.537 51.888ZM364.537 53.872V52.872H363.537V53.872H364.537ZM364.537 70V71H365.537V70H364.537ZM353.593 70H352.593V71H353.593V70ZM353.593 25.072V24.072H352.593V25.072H353.593ZM380.409 26.928L380.856 26.0336V26.0336L380.409 26.928ZM364.537 33.904V32.904H363.537V33.904H364.537ZM364.537 45.168H363.537V46.168H364.537V45.168ZM386.833 39.536C386.833 41.9789 386.274 44.2015 385.164 46.2227L386.918 47.1853C388.197 44.8545 388.833 42.2985 388.833 39.536H386.833ZM385.168 46.2154C384.08 48.1584 382.397 49.7599 380.066 51.0061L381.008 52.7699C383.626 51.3708 385.612 49.5162 386.914 47.1926L385.168 46.2154ZM380.066 51.0061C377.774 52.231 374.875 52.872 371.321 52.872V54.872C375.106 54.872 378.351 54.1903 381.008 52.7699L380.066 51.0061ZM371.321 52.872H364.537V54.872H371.321V52.872ZM363.537 53.872V70H365.537V53.872H363.537ZM364.537 69H353.593V71H364.537V69ZM354.593 70V25.072H352.593V70H354.593ZM353.593 26.072H371.321V24.072H353.593V26.072ZM371.321 26.072C374.794 26.072 377.661 26.6719 379.962 27.8224L380.856 26.0336C378.208 24.7094 375.016 24.072 371.321 24.072V26.072ZM379.962 27.8224C382.279 28.9809 383.979 30.5565 385.108 32.5423L386.846 31.5537C385.501 29.1875 383.489 27.3498 380.856 26.0336L379.962 27.8224ZM385.108 32.5423C386.249 34.5495 386.833 36.8712 386.833 39.536H388.833C388.833 36.5688 388.18 33.8984 386.846 31.5537L385.108 32.5423ZM370.489 46.168C372.717 46.168 374.571 45.6468 375.853 44.418L374.469 42.974C373.703 43.7079 372.443 44.168 370.489 44.168V46.168ZM375.853 44.418C377.123 43.2012 377.697 41.5245 377.697 39.536H375.697C375.697 41.1315 375.247 42.2282 374.469 42.974L375.853 44.418ZM377.697 39.536C377.697 37.5475 377.123 35.8708 375.853 34.654L374.469 36.098C375.247 36.8438 375.697 37.9405 375.697 39.536H377.697ZM375.853 34.654C374.571 33.4252 372.717 32.904 370.489 32.904V34.904C372.443 34.904 373.703 35.3641 374.469 36.098L375.853 34.654ZM370.489 32.904H364.537V34.904H370.489V32.904ZM363.537 33.904V45.168H365.537V33.904H363.537ZM364.537 46.168H370.489V44.168H364.537V46.168ZM393.402 42.416L392.511 41.9633L392.505 41.9743L393.402 42.416ZM399.099 36.016L399.629 36.864L399.099 36.016ZM413.69 35.312L413.212 36.1899L413.22 36.1943L413.69 35.312ZM418.107 39.344L417.255 39.8681L419.107 42.877V39.344H418.107ZM418.107 34.288V33.288H417.107V34.288H418.107ZM429.051 34.288H430.051V33.288H429.051V34.288ZM429.051 70V71H430.051V70H429.051ZM418.107 70H417.107V71H418.107V70ZM418.107 64.944H419.107V61.531L417.265 64.4043L418.107 64.944ZM413.626 68.976L413.156 68.0936L413.148 68.0981L413.626 68.976ZM399.099 68.272L398.558 69.1132L398.569 69.12L399.099 68.272ZM393.402 61.808L392.503 62.2443L392.507 62.2525L392.511 62.2607L393.402 61.808ZM415.802 45.68L415.076 46.3673L415.086 46.3774L415.802 45.68ZM404.73 45.68L404.014 44.9826L404.014 44.9829L404.73 45.68ZM404.73 58.608L403.995 59.2855L404.004 59.2955L404.014 59.3054L404.73 58.608ZM415.802 58.608L415.086 57.9106L415.076 57.9208L415.802 58.608ZM392.354 52.08C392.354 48.5354 393.014 45.4702 394.3 42.8577L392.505 41.9743C391.061 44.9085 390.354 48.2859 390.354 52.08H392.354ZM394.294 42.8687C395.629 40.2402 397.409 38.2511 399.629 36.864L398.569 35.168C396.009 36.7676 393.992 39.0451 392.511 41.9633L394.294 42.8687ZM399.629 36.864C401.852 35.4746 404.333 34.776 407.099 34.776V32.776C403.976 32.776 401.124 33.5708 398.569 35.168L399.629 36.864ZM407.099 34.776C409.478 34.776 411.505 35.2591 413.212 36.1899L414.169 34.4341C412.121 33.3169 409.753 32.776 407.099 32.776V34.776ZM413.22 36.1943C415.002 37.1446 416.334 38.3719 417.255 39.8681L418.958 38.8199C417.831 36.9881 416.219 35.5274 414.161 34.4296L413.22 36.1943ZM419.107 39.344V34.288H417.107V39.344H419.107ZM418.107 35.288H429.051V33.288H418.107V35.288ZM428.051 34.288V70H430.051V34.288H428.051ZM429.051 69H418.107V71H429.051V69ZM419.107 70V64.944H417.107V70H419.107ZM417.265 64.4043C416.299 65.91 414.94 67.1419 413.156 68.0936L414.097 69.8584C416.153 68.7621 417.78 67.306 418.948 65.4837L417.265 64.4043ZM413.148 68.0981C411.441 69.0289 409.414 69.512 407.034 69.512V71.512C409.689 71.512 412.057 70.9711 414.105 69.8539L413.148 68.0981ZM407.034 69.512C404.315 69.512 401.854 68.8149 399.629 67.424L398.569 69.12C401.122 70.7157 403.952 71.512 407.034 71.512V69.512ZM399.639 67.4308C397.413 65.9998 395.63 63.9858 394.294 61.3553L392.511 62.2607C393.991 65.1769 396.005 67.4722 398.558 69.1132L399.639 67.4308ZM394.302 61.3717C393.013 58.7133 392.354 55.6241 392.354 52.08H390.354C390.354 55.8745 391.061 59.2707 392.503 62.2443L394.302 61.3717ZM419.107 52.144C419.107 49.2187 418.278 46.7904 416.519 44.9826L415.086 46.3774C416.399 47.7269 417.107 49.6079 417.107 52.144H419.107ZM416.529 44.9928C414.846 43.2142 412.749 42.312 410.298 42.312V44.312C412.2 44.312 413.772 44.9885 415.076 46.3672L416.529 44.9928ZM410.298 42.312C407.849 42.312 405.735 43.2132 404.014 44.9826L405.447 46.3774C406.798 44.9895 408.396 44.312 410.298 44.312V42.312ZM404.014 44.9829C402.293 46.7531 401.491 49.1637 401.491 52.08H403.491C403.491 49.535 404.182 47.6789 405.448 46.3771L404.014 44.9829ZM401.491 52.08C401.491 54.999 402.293 57.438 403.995 59.2855L405.466 57.9305C404.181 56.5353 403.491 54.6224 403.491 52.08H401.491ZM404.014 59.3054C405.735 61.0748 407.849 61.976 410.298 61.976V59.976C408.396 59.976 406.798 59.2985 405.447 57.9106L404.014 59.3054ZM410.298 61.976C412.749 61.976 414.846 61.0738 416.529 59.2952L415.076 57.9208C413.772 59.2995 412.2 59.976 410.298 59.976V61.976ZM416.519 59.3054C418.278 57.4976 419.107 55.0693 419.107 52.144H417.107C417.107 54.6801 416.399 56.5611 415.086 57.9106L416.519 59.3054ZM458.792 70L457.983 70.5878L458.282 71H458.792V70ZM447.912 55.024L448.721 54.4362L446.912 51.9462V55.024H447.912ZM447.912 70V71H448.912V70H447.912ZM436.968 70H435.968V71H436.968V70ZM436.968 22.64V21.64H435.968V22.64H436.968ZM447.912 22.64H448.912V21.64H447.912V22.64ZM447.912 48.816H446.912V51.8338L448.714 49.4132L447.912 48.816ZM458.728 34.288V33.288H458.226L457.926 33.6908L458.728 34.288ZM472.232 34.288L473.002 34.926L474.359 33.288H472.232V34.288ZM457.384 52.208L456.614 51.57L456.081 52.213L456.619 52.852L457.384 52.208ZM472.36 70V71H474.509L473.125 69.356L472.36 70ZM459.601 69.4122L448.721 54.4362L447.103 55.6118L457.983 70.5878L459.601 69.4122ZM446.912 55.024V70H448.912V55.024H446.912ZM447.912 69H436.968V71H447.912V69ZM437.968 70V22.64H435.968V70H437.968ZM436.968 23.64H447.912V21.64H436.968V23.64ZM446.912 22.64V48.816H448.912V22.64H446.912ZM448.714 49.4132L459.53 34.8852L457.926 33.6908L447.11 48.2188L448.714 49.4132ZM458.728 35.288H472.232V33.288H458.728V35.288ZM471.462 33.65L456.614 51.57L458.154 52.846L473.002 34.926L471.462 33.65ZM456.619 52.852L471.595 70.644L473.125 69.356L458.149 51.564L456.619 52.852ZM472.36 69H458.792V71H472.36V69ZM510.003 54.768V55.768H510.894L510.996 54.8826L510.003 54.768ZM485.234 54.768V53.768H484.155L484.237 54.8447L485.234 54.768ZM487.346 59.888L486.652 60.6074L486.665 60.6196L486.678 60.6313L487.346 59.888ZM497.715 58.16V57.16H497.076L496.807 57.7399L497.715 58.16ZM509.362 58.16L510.332 58.4067L510.649 57.16H509.362V58.16ZM506.099 64.496L505.333 63.8523L505.325 63.8628L506.099 64.496ZM500.275 68.912L500.688 69.8224L500.275 68.912ZM483.059 68.272L482.579 69.1494L483.059 68.272ZM476.659 61.872L477.533 61.3875L476.659 61.872ZM476.595 42.416L475.72 41.9315L475.714 41.9419L476.595 42.416ZM482.995 36.016L483.474 36.8934L482.995 36.016ZM501.618 35.952L501.144 36.832V36.832L501.618 35.952ZM507.891 42.16L507.016 42.6457L507.022 42.6561L507.891 42.16ZM498.995 48.688V49.688H499.995V48.688H498.995ZM497.074 44.208L497.729 43.4523L497.074 44.208ZM487.603 44.144L486.962 43.3758L486.956 43.3811L486.95 43.3866L487.603 44.144ZM485.298 48.688L484.31 48.5376L484.135 49.688H485.298V48.688ZM509.194 51.568C509.194 52.5504 509.133 53.5787 509.009 54.6534L510.996 54.8826C511.128 53.7386 511.194 52.6336 511.194 51.568H509.194ZM510.003 53.768H485.234V55.768H510.003V53.768ZM484.237 54.8447C484.421 57.2339 485.192 59.1977 486.652 60.6074L488.041 59.1686C487.027 58.189 486.389 56.7395 486.232 54.6913L484.237 54.8447ZM486.678 60.6313C488.154 61.96 489.954 62.616 492.018 62.616V60.616C490.413 60.616 489.099 60.12 488.015 59.1447L486.678 60.6313ZM492.018 62.616C493.525 62.616 494.871 62.2974 496.009 61.6069C497.152 60.9136 498.017 59.8858 498.622 58.5801L496.807 57.7399C496.345 58.7382 495.728 59.4384 494.972 59.8971C494.211 60.3586 493.243 60.616 492.018 60.616V62.616ZM497.715 59.16H509.362V57.16H497.715V59.16ZM508.393 57.9133C507.834 60.1121 506.816 62.0888 505.333 63.8524L506.864 65.1396C508.538 63.1485 509.697 60.9013 510.332 58.4067L508.393 57.9133ZM505.325 63.8628C503.892 65.6139 502.077 66.9944 499.861 68.0016L500.688 69.8224C503.166 68.6963 505.233 67.1328 506.872 65.1292L505.325 63.8628ZM499.861 68.0016C497.659 69.0022 495.179 69.512 492.402 69.512V71.512C495.429 71.512 498.196 70.9551 500.688 69.8224L499.861 68.0016ZM492.402 69.512C489.05 69.512 486.104 68.7979 483.538 67.3946L482.579 69.1494C485.474 70.7327 488.757 71.512 492.402 71.512V69.512ZM483.538 67.3946C480.977 65.994 478.979 63.9984 477.533 61.3875L475.784 62.3565C477.41 65.2923 479.679 67.5634 482.579 69.1494L483.538 67.3946ZM477.533 61.3875C476.092 58.786 475.354 55.7156 475.354 52.144H473.354C473.354 55.9964 474.153 59.4114 475.784 62.3565L477.533 61.3875ZM475.354 52.144C475.354 48.5679 476.073 45.4937 477.475 42.8901L475.714 41.9419C474.129 44.8849 473.354 48.2961 473.354 52.144H475.354ZM477.469 42.9005C478.915 40.2896 480.913 38.294 483.474 36.8934L482.515 35.1386C479.615 36.7246 477.346 38.9957 475.72 41.9315L477.469 42.9005ZM483.474 36.8934C486.039 35.491 489.005 34.776 492.402 34.776V32.776C488.717 32.776 485.412 33.5543 482.515 35.1386L483.474 36.8934ZM492.402 34.776C495.715 34.776 498.62 35.47 501.144 36.832L502.093 35.072C499.241 33.5327 496.002 32.776 492.402 32.776V34.776ZM501.144 36.832C503.662 38.1914 505.615 40.1233 507.016 42.6456L508.765 41.6744C507.179 38.8207 504.951 36.6139 502.093 35.072L501.144 36.832ZM507.022 42.6561C508.459 45.1707 509.194 48.1303 509.194 51.568H511.194C511.194 47.8377 510.394 44.5253 508.759 41.6639L507.022 42.6561ZM499.995 48.688C499.995 46.5559 499.254 44.7735 497.729 43.4523L496.42 44.9637C497.455 45.8611 497.995 47.0654 497.995 48.688H499.995ZM497.729 43.4523C496.243 42.1643 494.401 41.544 492.275 41.544V43.544C493.988 43.544 495.346 44.033 496.42 44.9637L497.729 43.4523ZM492.275 41.544C490.231 41.544 488.441 42.1439 486.962 43.3758L488.243 44.9122C489.324 44.0107 490.648 43.544 492.275 43.544V41.544ZM486.95 43.3866C485.495 44.6408 484.636 46.3919 484.31 48.5376L486.287 48.8384C486.558 47.0588 487.236 45.7806 488.255 44.9014L486.95 43.3866ZM485.298 49.688H498.995V47.688H485.298V49.688ZM535.872 60.72H536.872V59.72H535.872V60.72ZM535.872 70V71H536.872V70H535.872ZM521.024 67.12L520.361 67.869L520.37 67.8762L521.024 67.12ZM517.696 43.376H518.696V42.376H517.696V43.376ZM513.344 43.376H512.344V44.376H513.344V43.376ZM513.344 34.288V33.288H512.344V34.288H513.344ZM517.696 34.288V35.288H518.696V34.288H517.696ZM517.696 25.584V24.584H516.696V25.584H517.696ZM528.64 25.584H529.64V24.584H528.64V25.584ZM528.64 34.288H527.64V35.288H528.64V34.288ZM535.808 34.288H536.808V33.288H535.808V34.288ZM535.808 43.376V44.376H536.808V43.376H535.808ZM528.64 43.376V42.376H527.64V43.376H528.64ZM529.408 60.016L528.732 60.7532L529.408 60.016ZM534.872 60.72V70H536.872V60.72H534.872ZM535.872 69H530.304V71H535.872V69ZM530.304 69C526.491 69 523.66 68.0786 521.678 66.3638L520.37 67.8762C522.826 70.0014 526.181 71 530.304 71V69ZM521.687 66.371C519.769 64.6746 518.696 61.8324 518.696 57.584H516.696C516.696 62.1249 517.842 65.6401 520.361 67.869L521.687 66.371ZM518.696 57.584V43.376H516.696V57.584H518.696ZM517.696 42.376H513.344V44.376H517.696V42.376ZM514.344 43.376V34.288H512.344V43.376H514.344ZM513.344 35.288H517.696V33.288H513.344V35.288ZM518.696 34.288V25.584H516.696V34.288H518.696ZM517.696 26.584H528.64V24.584H517.696V26.584ZM527.64 25.584V34.288H529.64V25.584H527.64ZM528.64 35.288H535.808V33.288H528.64V35.288ZM534.808 34.288V43.376H536.808V34.288H534.808ZM535.808 42.376H528.64V44.376H535.808V42.376ZM527.64 43.376V57.712H529.64V43.376H527.64ZM527.64 57.712C527.64 58.91 527.925 60.0129 528.732 60.7532L530.084 59.2788C529.867 59.0804 529.64 58.6474 529.64 57.712H527.64ZM528.732 60.7532C529.522 61.4775 530.689 61.72 531.968 61.72V59.72C530.858 59.72 530.318 59.4932 530.084 59.2788L528.732 60.7532ZM531.968 61.72H535.872V59.72H531.968V61.72Z" fill="black"/>
</g>
<defs>
<filter id="filter0_d_97_2" x="106" y="118" width="461" height="235" filterUnits="userSpaceOnUse" color-interpolation-filters="sRGB">
<feFlood flood-opacity="0" result="BackgroundImageFix"/>
<feColorMatrix in="SourceAlpha" type="matrix" values="0 0 0 0 0 0 0 0 0 0 0 0 0 0 0 0 0 0 127 0" result="hardAlpha"/>
<feOffset dy="4"/>
<feGaussianBlur stdDeviation="2"/>
<feComposite in2="hardAlpha" operator="out"/>
<feColorMatrix type="matrix" values="0 0 0 0 0 0 0 0 0 0 0 0 0 0 0 0 0 0 0.25 0"/>
<feBlend mode="normal" in2="BackgroundImageFix" result="effect1_dropShadow_97_2"/>
<feBlend mode="normal" in="SourceGraphic" in2="effect1_dropShadow_97_2" result="shape"/>
</filter>
<filter id="filter1_d_97_2" x="0" y="118" width="88" height="87" filterUnits="userSpaceOnUse" color-interpolation-filters="sRGB">
<feFlood flood-opacity="0" result="BackgroundImageFix"/>
<feColorMatrix in="SourceAlpha" type="matrix" values="0 0 0 0 0 0 0 0 0 0 0 0 0 0 0 0 0 0 127 0" result="hardAlpha"/>
<feOffset dy="4"/>
<feGaussianBlur stdDeviation="2"/>
<feComposite in2="hardAlpha" operator="out"/>
<feColorMatrix type="matrix" values="0 0 0 0 0 0 0 0 0 0 0 0 0 0 0 0 0 0 0.25 0"/>
<feBlend mode="normal" in2="BackgroundImageFix" result="effect1_dropShadow_97_2"/>
<feBlend mode="normal" in="SourceGraphic" in2="effect1_dropShadow_97_2" result="shape"/>
</filter>
<filter id="filter2_d_97_2" x="280" y="283" width="110" height="58" filterUnits="userSpaceOnUse" color-interpolation-filters="sRGB">
<feFlood flood-opacity="0" result="BackgroundImageFix"/>
<feColorMatrix in="SourceAlpha" type="matrix" values="0 0 0 0 0 0 0 0 0 0 0 0 0 0 0 0 0 0 127 0" result="hardAlpha"/>
<feOffset dy="4"/>
<feGaussianBlur stdDeviation="2"/>
<feComposite in2="hardAlpha" operator="out"/>
<feColorMatrix type="matrix" values="0 0 0 0 0 0 0 0 0 0 0 0 0 0 0 0 0 0 0.25 0"/>
<feBlend mode="normal" in2="BackgroundImageFix" result="effect1_dropShadow_97_2"/>
<feBlend mode="normal" in="SourceGraphic" in2="effect1_dropShadow_97_2" result="shape"/>
</filter>
<filter id="filter3_d_97_2" x="117.968" y="22.64" width="421.904" height="72.96" filterUnits="userSpaceOnUse" color-interpolation-filters="sRGB">
<feFlood flood-opacity="0" result="BackgroundImageFix"/>
<feColorMatrix in="SourceAlpha" type="matrix" values="0 0 0 0 0 0 0 0 0 0 0 0 0 0 0 0 0 0 127 0" result="hardAlpha"/>
<feOffset dy="4"/>
<feGaussianBlur stdDeviation="2"/>
<feComposite in2="hardAlpha" operator="out"/>
<feColorMatrix type="matrix" values="0 0 0 0 0 0 0 0 0 0 0 0 0 0 0 0 0 0 0.25 0"/>
<feBlend mode="normal" in2="BackgroundImageFix" result="effect1_dropShadow_97_2"/>
<feBlend mode="normal" in="SourceGraphic" in2="effect1_dropShadow_97_2" result="shape"/>
</filter>
</defs>
</svg>
