<svg width="423" height="74" viewBox="0 0 423 74" fill="none" xmlns="http://www.w3.org/2000/svg">
<g filter="url(#filter0_d_22_4)">
<path d="M43.88 3.072V48H32.936V29.504H15.912V48H4.968V3.072H15.912V20.672H32.936V3.072H43.88ZM49.6045 30.08C49.6045 26.4107 50.2872 23.1893 51.6525 20.416C53.0605 17.6427 54.9592 15.5093 57.3485 14.016C59.7378 12.5227 62.4045 11.776 65.3485 11.776C67.8658 11.776 70.0632 12.288 71.9405 13.312C73.8605 14.336 75.3325 15.68 76.3565 17.344V12.288H87.3005V48H76.3565V42.944C75.2898 44.608 73.7965 45.952 71.8765 46.976C69.9992 48 67.8018 48.512 65.2845 48.512C62.3832 48.512 59.7378 47.7653 57.3485 46.272C54.9592 44.736 53.0605 42.5813 51.6525 39.808C50.2872 36.992 49.6045 33.7493 49.6045 30.08ZM76.3565 30.144C76.3565 27.4133 75.5885 25.2587 74.0525 23.68C72.5592 22.1013 70.7245 21.312 68.5485 21.312C66.3725 21.312 64.5165 22.1013 62.9805 23.68C61.4872 25.216 60.7405 27.3493 60.7405 30.08C60.7405 32.8107 61.4872 34.9867 62.9805 36.608C64.5165 38.1867 66.3725 38.976 68.5485 38.976C70.7245 38.976 72.5592 38.1867 74.0525 36.608C75.5885 35.0293 76.3565 32.8747 76.3565 30.144ZM106.162 18.24C107.442 16.2773 109.042 14.7413 110.962 13.632C112.882 12.48 115.015 11.904 117.362 11.904V23.488H114.354C111.623 23.488 109.575 24.0853 108.21 25.28C106.845 26.432 106.162 28.48 106.162 31.424V48H95.218V12.288H106.162V18.24ZM136.161 11.776C138.678 11.776 140.876 12.288 142.753 13.312C144.673 14.336 146.145 15.68 147.169 17.344V12.288H158.113V47.936C158.113 51.2213 157.452 54.1867 156.129 56.832C154.849 59.52 152.865 61.6533 150.177 63.232C147.532 64.8107 144.225 65.6 140.257 65.6C134.966 65.6 130.678 64.3413 127.393 61.824C124.108 59.3493 122.23 55.9787 121.761 51.712H132.577C132.918 53.0773 133.729 54.144 135.009 54.912C136.289 55.7227 137.868 56.128 139.745 56.128C142.006 56.128 143.798 55.4667 145.121 54.144C146.486 52.864 147.169 50.7947 147.169 47.936V42.88C146.102 44.544 144.63 45.9093 142.753 46.976C140.876 48 138.678 48.512 136.161 48.512C133.217 48.512 130.55 47.7653 128.161 46.272C125.772 44.736 123.873 42.5813 122.465 39.808C121.1 36.992 120.417 33.7493 120.417 30.08C120.417 26.4107 121.1 23.1893 122.465 20.416C123.873 17.6427 125.772 15.5093 128.161 14.016C130.55 12.5227 133.217 11.776 136.161 11.776ZM147.169 30.144C147.169 27.4133 146.401 25.2587 144.865 23.68C143.372 22.1013 141.537 21.312 139.361 21.312C137.185 21.312 135.329 22.1013 133.793 23.68C132.3 25.216 131.553 27.3493 131.553 30.08C131.553 32.8107 132.3 34.9867 133.793 36.608C135.329 38.1867 137.185 38.976 139.361 38.976C141.537 38.976 143.372 38.1867 144.865 36.608C146.401 35.0293 147.169 32.8747 147.169 30.144ZM163.855 30.08C163.855 26.4107 164.537 23.1893 165.903 20.416C167.311 17.6427 169.209 15.5093 171.599 14.016C173.988 12.5227 176.655 11.776 179.599 11.776C182.116 11.776 184.313 12.288 186.191 13.312C188.111 14.336 189.583 15.68 190.607 17.344V12.288H201.551V48H190.607V42.944C189.54 44.608 188.047 45.952 186.127 46.976C184.249 48 182.052 48.512 179.535 48.512C176.633 48.512 173.988 47.7653 171.599 46.272C169.209 44.736 167.311 42.5813 165.903 39.808C164.537 36.992 163.855 33.7493 163.855 30.08ZM190.607 30.144C190.607 27.4133 189.839 25.2587 188.303 23.68C186.809 22.1013 184.975 21.312 182.799 21.312C180.623 21.312 178.767 22.1013 177.231 23.68C175.737 25.216 174.991 27.3493 174.991 30.08C174.991 32.8107 175.737 34.9867 177.231 36.608C178.767 38.1867 180.623 38.976 182.799 38.976C184.975 38.976 186.809 38.1867 188.303 36.608C189.839 35.0293 190.607 32.8747 190.607 30.144ZM270.833 17.536C270.833 20.1387 270.236 22.528 269.041 24.704C267.846 26.8373 266.012 28.5653 263.537 29.888C261.062 31.2107 257.99 31.872 254.321 31.872H247.537V48H236.593V3.072H254.321C257.905 3.072 260.934 3.69066 263.409 4.928C265.884 6.16533 267.74 7.872 268.977 10.048C270.214 12.224 270.833 14.72 270.833 17.536ZM253.489 23.168C255.58 23.168 257.137 22.6773 258.161 21.696C259.185 20.7147 259.697 19.328 259.697 17.536C259.697 15.744 259.185 14.3573 258.161 13.376C257.137 12.3947 255.58 11.904 253.489 11.904H247.537V23.168H253.489ZM274.355 30.08C274.355 26.4107 275.037 23.1893 276.403 20.416C277.811 17.6427 279.709 15.5093 282.099 14.016C284.488 12.5227 287.155 11.776 290.099 11.776C292.616 11.776 294.813 12.288 296.691 13.312C298.611 14.336 300.083 15.68 301.107 17.344V12.288H312.051V48H301.107V42.944C300.04 44.608 298.547 45.952 296.627 46.976C294.749 48 292.552 48.512 290.035 48.512C287.133 48.512 284.488 47.7653 282.099 46.272C279.709 44.736 277.811 42.5813 276.403 39.808C275.037 36.992 274.355 33.7493 274.355 30.08ZM301.107 30.144C301.107 27.4133 300.339 25.2587 298.803 23.68C297.309 22.1013 295.475 21.312 293.299 21.312C291.123 21.312 289.267 22.1013 287.731 23.68C286.237 25.216 285.491 27.3493 285.491 30.08C285.491 32.8107 286.237 34.9867 287.731 36.608C289.267 38.1867 291.123 38.976 293.299 38.976C295.475 38.976 297.309 38.1867 298.803 36.608C300.339 35.0293 301.107 32.8747 301.107 30.144ZM341.792 48L330.912 33.024V48H319.968V0.639999H330.912V26.816L341.728 12.288H355.232L340.384 30.208L355.36 48H341.792ZM393.194 29.568C393.194 30.592 393.131 31.6587 393.003 32.768H368.235C368.405 34.9867 369.109 36.6933 370.347 37.888C371.627 39.04 373.184 39.616 375.019 39.616C377.749 39.616 379.648 38.464 380.715 36.16H392.363C391.765 38.5067 390.677 40.6187 389.099 42.496C387.563 44.3733 385.621 45.8453 383.275 46.912C380.928 47.9787 378.304 48.512 375.403 48.512C371.904 48.512 368.789 47.7653 366.059 46.272C363.328 44.7787 361.195 42.6453 359.659 39.872C358.123 37.0987 357.355 33.856 357.355 30.144C357.355 26.432 358.101 23.1893 359.595 20.416C361.131 17.6427 363.264 15.5093 365.995 14.016C368.725 12.5227 371.861 11.776 375.403 11.776C378.859 11.776 381.931 12.5013 384.619 13.952C387.307 15.4027 389.397 17.472 390.891 20.16C392.427 22.848 393.194 25.984 393.194 29.568ZM381.995 26.688C381.995 24.8107 381.355 23.3173 380.075 22.208C378.795 21.0987 377.195 20.544 375.275 20.544C373.44 20.544 371.883 21.0773 370.603 22.144C369.365 23.2107 368.597 24.7253 368.299 26.688H381.995ZM418.872 38.72V48H413.304C409.336 48 406.243 47.04 404.024 45.12C401.805 43.1573 400.696 39.9787 400.696 35.584V21.376H396.344V12.288H400.696V3.584H411.64V12.288H418.808V21.376H411.64V35.712C411.64 36.7787 411.896 37.5467 412.408 38.016C412.92 38.4853 413.773 38.72 414.968 38.72H418.872Z" fill="black"/>
<path d="M43.88 3.072H44.88V2.072H43.88V3.072ZM43.88 48V49H44.88V48H43.88ZM32.936 48H31.936V49H32.936V48ZM32.936 29.504H33.936V28.504H32.936V29.504ZM15.912 29.504V28.504H14.912V29.504H15.912ZM15.912 48V49H16.912V48H15.912ZM4.968 48H3.968V49H4.968V48ZM4.968 3.072V2.072H3.968V3.072H4.968ZM15.912 3.072H16.912V2.072H15.912V3.072ZM15.912 20.672H14.912V21.672H15.912V20.672ZM32.936 20.672V21.672H33.936V20.672H32.936ZM32.936 3.072V2.072H31.936V3.072H32.936ZM42.88 3.072V48H44.88V3.072H42.88ZM43.88 47H32.936V49H43.88V47ZM33.936 48V29.504H31.936V48H33.936ZM32.936 28.504H15.912V30.504H32.936V28.504ZM14.912 29.504V48H16.912V29.504H14.912ZM15.912 47H4.968V49H15.912V47ZM5.968 48V3.072H3.968V48H5.968ZM4.968 4.072H15.912V2.072H4.968V4.072ZM14.912 3.072V20.672H16.912V3.072H14.912ZM15.912 21.672H32.936V19.672H15.912V21.672ZM33.936 20.672V3.072H31.936V20.672H33.936ZM32.936 4.072H43.88V2.072H32.936V4.072ZM51.6525 20.416L50.7608 19.9633L50.7553 19.9743L51.6525 20.416ZM57.3485 14.016L57.8785 14.864L57.3485 14.016ZM71.9405 13.312L71.4616 14.1899L71.4699 14.1943L71.9405 13.312ZM76.3565 17.344L75.5048 17.8681L77.3565 20.877V17.344H76.3565ZM76.3565 12.288V11.288H75.3565V12.288H76.3565ZM87.3005 12.288H88.3005V11.288H87.3005V12.288ZM87.3005 48V49H88.3005V48H87.3005ZM76.3565 48H75.3565V49H76.3565V48ZM76.3565 42.944H77.3565V39.531L75.5146 42.4043L76.3565 42.944ZM71.8765 46.976L71.4059 46.0936L71.3977 46.0981L71.8765 46.976ZM57.3485 46.272L56.8077 47.1132L56.8185 47.12L57.3485 46.272ZM51.6525 39.808L50.7527 40.2443L50.7567 40.2525L50.7608 40.2607L51.6525 39.808ZM74.0525 23.68L73.326 24.3673L73.3358 24.3774L74.0525 23.68ZM62.9805 23.68L62.2638 22.9826L62.2635 22.9829L62.9805 23.68ZM62.9805 36.608L62.245 37.2855L62.2542 37.2955L62.2638 37.3054L62.9805 36.608ZM74.0525 36.608L73.3357 35.9106L73.326 35.9208L74.0525 36.608ZM50.6045 30.08C50.6045 26.5354 51.2635 23.4702 52.5497 20.8577L50.7553 19.9743C49.3108 22.9085 48.6045 26.2859 48.6045 30.08H50.6045ZM52.5442 20.8687C53.8786 18.2402 55.6591 16.2511 57.8785 14.864L56.8185 13.168C54.2592 14.7676 52.2424 17.0451 50.7608 19.9633L52.5442 20.8687ZM57.8785 14.864C60.1016 13.4746 62.5831 12.776 65.3485 12.776V10.776C62.2259 10.776 59.3741 11.5708 56.8185 13.168L57.8785 14.864ZM65.3485 12.776C67.7282 12.776 69.7552 13.2591 71.4616 14.1899L72.4193 12.4341C70.3711 11.3169 68.0034 10.776 65.3485 10.776V12.776ZM71.4699 14.1943C73.2516 15.1446 74.5841 16.3719 75.5048 17.8681L77.2082 16.8199C76.0809 14.9881 74.4694 13.5274 72.4111 12.4296L71.4699 14.1943ZM77.3565 17.344V12.288H75.3565V17.344H77.3565ZM76.3565 13.288H87.3005V11.288H76.3565V13.288ZM86.3005 12.288V48H88.3005V12.288H86.3005ZM87.3005 47H76.3565V49H87.3005V47ZM77.3565 48V42.944H75.3565V48H77.3565ZM75.5146 42.4043C74.5494 43.91 73.1905 45.1419 71.4059 46.0936L72.3471 47.8584C74.4025 46.7621 76.0302 45.306 77.1984 43.4837L75.5146 42.4043ZM71.3977 46.0981C69.6912 47.0289 67.6642 47.512 65.2845 47.512V49.512C67.9394 49.512 70.3071 48.9711 72.3554 47.8539L71.3977 46.0981ZM65.2845 47.512C62.5647 47.512 60.104 46.8149 57.8785 45.424L56.8185 47.12C59.3717 48.7157 62.2016 49.512 65.2845 49.512V47.512ZM57.8893 45.4308C55.6633 43.9998 53.8796 41.9858 52.5442 39.3553L50.7608 40.2607C52.2414 43.1769 54.2551 45.4722 56.8077 47.1132L57.8893 45.4308ZM52.5523 39.3717C51.2634 36.7133 50.6045 33.6241 50.6045 30.08H48.6045C48.6045 33.8745 49.311 37.2707 50.7527 40.2443L52.5523 39.3717ZM77.3565 30.144C77.3565 27.2187 76.5281 24.7904 74.7692 22.9826L73.3358 24.3774C74.6489 25.7269 75.3565 27.6079 75.3565 30.144H77.3565ZM74.779 22.9928C73.0965 21.2142 70.9989 20.312 68.5485 20.312V22.312C70.4501 22.312 72.0219 22.9885 73.326 24.3672L74.779 22.9928ZM68.5485 20.312C66.0988 20.312 63.9854 21.2132 62.2638 22.9826L63.6972 24.3774C65.0476 22.9895 66.6462 22.312 68.5485 22.312V20.312ZM62.2635 22.9829C60.5425 24.7531 59.7405 27.1637 59.7405 30.08H61.7405C61.7405 27.535 62.4318 25.6789 63.6975 24.3771L62.2635 22.9829ZM59.7405 30.08C59.7405 32.999 60.5434 35.438 62.245 37.2855L63.716 35.9305C62.431 34.5353 61.7405 32.6224 61.7405 30.08H59.7405ZM62.2638 37.3054C63.9854 39.0748 66.0988 39.976 68.5485 39.976V37.976C66.6462 37.976 65.0476 37.2985 63.6972 35.9106L62.2638 37.3054ZM68.5485 39.976C70.9989 39.976 73.0965 39.0738 74.779 37.2952L73.326 35.9208C72.0219 37.2995 70.4501 37.976 68.5485 37.976V39.976ZM74.7692 37.3054C76.5281 35.4976 77.3565 33.0693 77.3565 30.144H75.3565C75.3565 32.6801 74.6489 34.5611 73.3358 35.9106L74.7692 37.3054ZM106.162 18.24H105.162V21.6039L107 18.7863L106.162 18.24ZM110.962 13.632L111.462 14.4979L111.469 14.4937L111.477 14.4895L110.962 13.632ZM117.362 11.904H118.362V10.904H117.362V11.904ZM117.362 23.488V24.488H118.362V23.488H117.362ZM108.21 25.28L108.855 26.0443L108.862 26.0385L108.869 26.0326L108.21 25.28ZM106.162 48V49H107.162V48H106.162ZM95.218 48H94.218V49H95.218V48ZM95.218 12.288V11.288H94.218V12.288H95.218ZM106.162 12.288H107.162V11.288H106.162V12.288ZM107 18.7863C108.199 16.9475 109.686 15.5242 111.462 14.4979L110.462 12.7661C108.398 13.9585 106.685 15.6072 105.324 17.6937L107 18.7863ZM111.477 14.4895C113.233 13.4353 115.187 12.904 117.362 12.904V10.904C114.843 10.904 112.531 11.5247 110.448 12.7745L111.477 14.4895ZM116.362 11.904V23.488H118.362V11.904H116.362ZM117.362 22.488H114.354V24.488H117.362V22.488ZM114.354 22.488C111.5 22.488 109.172 23.1095 107.551 24.5274L108.869 26.0326C109.979 25.0611 111.747 24.488 114.354 24.488V22.488ZM107.565 24.5157C105.863 25.9518 105.162 28.3717 105.162 31.424H107.162C107.162 28.5883 107.826 26.9122 108.855 26.0443L107.565 24.5157ZM105.162 31.424V48H107.162V31.424H105.162ZM106.162 47H95.218V49H106.162V47ZM96.218 48V12.288H94.218V48H96.218ZM95.218 13.288H106.162V11.288H95.218V13.288ZM105.162 12.288V18.24H107.162V12.288H105.162ZM142.753 13.312L142.274 14.1899L142.282 14.1943L142.753 13.312ZM147.169 17.344L146.317 17.8681L148.169 20.877V17.344H147.169ZM147.169 12.288V11.288H146.169V12.288H147.169ZM158.113 12.288H159.113V11.288H158.113V12.288ZM156.129 56.832L155.235 56.3848L155.23 56.3934L155.226 56.4021L156.129 56.832ZM150.177 63.232L149.671 62.3697L149.665 62.3733L150.177 63.232ZM127.393 61.824L128.001 61.0302L127.995 61.0252L127.393 61.824ZM121.761 51.712V50.712H120.645L120.767 51.8213L121.761 51.712ZM132.577 51.712L133.547 51.4695L133.358 50.712H132.577V51.712ZM135.009 54.912L135.544 54.0672L135.534 54.0607L135.523 54.0545L135.009 54.912ZM145.121 54.144L144.437 53.4145L144.425 53.4255L144.414 53.4369L145.121 54.144ZM147.169 42.88H148.169V39.467L146.327 42.3403L147.169 42.88ZM142.753 46.976L143.232 47.8539L143.239 47.8497L143.247 47.8455L142.753 46.976ZM128.161 46.272L127.62 47.1132L127.631 47.12L128.161 46.272ZM122.465 39.808L121.565 40.2443L121.569 40.2525L121.573 40.2607L122.465 39.808ZM122.465 20.416L121.573 19.9633L121.568 19.9743L122.465 20.416ZM128.161 14.016L128.691 14.864L128.161 14.016ZM144.865 23.68L144.138 24.3673L144.148 24.3774L144.865 23.68ZM133.793 23.68L133.076 22.9826L133.076 22.9829L133.793 23.68ZM133.793 36.608L133.057 37.2855L133.067 37.2955L133.076 37.3054L133.793 36.608ZM144.865 36.608L144.148 35.9106L144.139 35.9208L144.865 36.608ZM136.161 12.776C138.541 12.776 140.568 13.2591 142.274 14.1899L143.232 12.4341C141.184 11.3169 138.816 10.776 136.161 10.776V12.776ZM142.282 14.1943C144.064 15.1446 145.397 16.3719 146.317 17.8681L148.021 16.8199C146.893 14.9881 145.282 13.5274 143.224 12.4296L142.282 14.1943ZM148.169 17.344V12.288H146.169V17.344H148.169ZM147.169 13.288H158.113V11.288H147.169V13.288ZM157.113 12.288V47.936H159.113V12.288H157.113ZM157.113 47.936C157.113 51.0835 156.48 53.8931 155.235 56.3848L157.023 57.2792C158.423 54.4802 159.113 51.3592 159.113 47.936H157.113ZM155.226 56.4021C154.036 58.9008 152.195 60.8873 149.671 62.3697L150.683 64.0943C153.535 62.4194 155.662 60.1392 157.032 57.2619L155.226 56.4021ZM149.665 62.3733C147.213 63.8364 144.096 64.6 140.257 64.6V66.6C144.354 66.6 147.851 65.7849 150.689 64.0907L149.665 62.3733ZM140.257 64.6C135.124 64.6 131.069 63.3805 128.001 61.0302L126.785 62.6178C130.288 65.3021 134.808 66.6 140.257 66.6V64.6ZM127.995 61.0252C124.94 58.7244 123.196 55.6087 122.755 51.6027L120.767 51.8213C121.265 56.3486 123.275 59.9742 126.791 62.6228L127.995 61.0252ZM121.761 52.712H132.577V50.712H121.761V52.712ZM131.607 51.9545C132.017 53.594 133.002 54.8742 134.495 55.7695L135.523 54.0545C134.456 53.4138 133.82 52.5607 133.547 51.4695L131.607 51.9545ZM134.474 55.7568C135.948 56.6906 137.723 57.128 139.745 57.128V55.128C138.012 55.128 136.63 54.7547 135.544 54.0672L134.474 55.7568ZM139.745 57.128C142.212 57.128 144.28 56.3994 145.828 54.8511L144.414 53.4369C143.317 54.534 141.8 55.128 139.745 55.128V57.128ZM145.805 54.8735C147.457 53.3243 148.169 50.9266 148.169 47.936H146.169C146.169 50.6627 145.515 52.4037 144.437 53.4145L145.805 54.8735ZM148.169 47.936V42.88H146.169V47.936H148.169ZM146.327 42.3403C145.356 43.8555 144.009 45.1124 142.259 46.1065L143.247 47.8455C145.252 46.7062 146.849 45.2325 148.011 43.4197L146.327 42.3403ZM142.274 46.0981C140.568 47.0289 138.541 47.512 136.161 47.512V49.512C138.816 49.512 141.184 48.9711 143.232 47.8539L142.274 46.0981ZM136.161 47.512C133.396 47.512 130.914 46.8134 128.691 45.424L127.631 47.12C130.187 48.7172 133.038 49.512 136.161 49.512V47.512ZM128.702 45.4308C126.476 43.9998 124.692 41.9858 123.357 39.3553L121.573 40.2607C123.054 43.1769 125.068 45.4722 127.62 47.1132L128.702 45.4308ZM123.365 39.3717C122.076 36.7133 121.417 33.6241 121.417 30.08H119.417C119.417 33.8745 120.123 37.2707 121.565 40.2443L123.365 39.3717ZM121.417 30.08C121.417 26.5354 122.076 23.4702 123.362 20.8577L121.568 19.9743C120.123 22.9085 119.417 26.2859 119.417 30.08H121.417ZM123.357 20.8687C124.691 18.2402 126.472 16.2511 128.691 14.864L127.631 13.168C125.072 14.7676 123.055 17.0451 121.573 19.9633L123.357 20.8687ZM128.691 14.864C130.914 13.4746 133.396 12.776 136.161 12.776V10.776C133.038 10.776 130.187 11.5708 127.631 13.168L128.691 14.864ZM148.169 30.144C148.169 27.2187 147.341 24.7904 145.582 22.9826L144.148 24.3774C145.461 25.7269 146.169 27.6079 146.169 30.144H148.169ZM145.591 22.9928C143.909 21.2142 141.811 20.312 139.361 20.312V22.312C141.263 22.312 142.834 22.9885 144.139 24.3672L145.591 22.9928ZM139.361 20.312C136.911 20.312 134.798 21.2132 133.076 22.9826L134.51 24.3774C135.86 22.9895 137.459 22.312 139.361 22.312V20.312ZM133.076 22.9829C131.355 24.7531 130.553 27.1637 130.553 30.08H132.553C132.553 27.535 133.244 25.6789 134.51 24.3771L133.076 22.9829ZM130.553 30.08C130.553 32.999 131.356 35.438 133.057 37.2855L134.529 35.9305C133.243 34.5353 132.553 32.6224 132.553 30.08H130.553ZM133.076 37.3054C134.798 39.0748 136.911 39.976 139.361 39.976V37.976C137.459 37.976 135.86 37.2985 134.51 35.9106L133.076 37.3054ZM139.361 39.976C141.811 39.976 143.909 39.0738 145.591 37.2952L144.139 35.9208C142.834 37.2995 141.263 37.976 139.361 37.976V39.976ZM145.582 37.3054C147.341 35.4976 148.169 33.0693 148.169 30.144H146.169C146.169 32.6801 145.461 34.5611 144.148 35.9106L145.582 37.3054ZM165.902 20.416L165.011 19.9633L165.005 19.9743L165.902 20.416ZM171.598 14.016L172.128 14.864L171.598 14.016ZM186.191 13.312L185.712 14.1899L185.72 14.1943L186.191 13.312ZM190.607 17.344L189.755 17.8681L191.607 20.877V17.344H190.607ZM190.607 12.288V11.288H189.607V12.288H190.607ZM201.551 12.288H202.551V11.288H201.551V12.288ZM201.551 48V49H202.551V48H201.551ZM190.607 48H189.607V49H190.607V48ZM190.607 42.944H191.607V39.531L189.765 42.4043L190.607 42.944ZM186.126 46.976L185.656 46.0936L185.648 46.0981L186.126 46.976ZM171.598 46.272L171.058 47.1132L171.068 47.12L171.598 46.272ZM165.902 39.808L165.003 40.2443L165.007 40.2525L165.011 40.2607L165.902 39.808ZM188.303 23.68L187.576 24.3673L187.586 24.3774L188.303 23.68ZM177.23 23.68L176.514 22.9826L176.514 22.9829L177.23 23.68ZM177.23 36.608L176.495 37.2855L176.504 37.2955L176.514 37.3054L177.23 36.608ZM188.303 36.608L187.586 35.9106L187.576 35.9208L188.303 36.608ZM164.855 30.08C164.855 26.5354 165.514 23.4702 166.8 20.8577L165.005 19.9743C163.561 22.9085 162.855 26.2859 162.855 30.08H164.855ZM166.794 20.8687C168.129 18.2402 169.909 16.2511 172.128 14.864L171.068 13.168C168.509 14.7676 166.492 17.0451 165.011 19.9633L166.794 20.8687ZM172.128 14.864C174.352 13.4746 176.833 12.776 179.598 12.776V10.776C176.476 10.776 173.624 11.5708 171.068 13.168L172.128 14.864ZM179.598 12.776C181.978 12.776 184.005 13.2591 185.712 14.1899L186.669 12.4341C184.621 11.3169 182.253 10.776 179.598 10.776V12.776ZM185.72 14.1943C187.502 15.1446 188.834 16.3719 189.755 17.8681L191.458 16.8199C190.331 14.9881 188.719 13.5274 186.661 12.4296L185.72 14.1943ZM191.607 17.344V12.288H189.607V17.344H191.607ZM190.607 13.288H201.551V11.288H190.607V13.288ZM200.551 12.288V48H202.551V12.288H200.551ZM201.551 47H190.607V49H201.551V47ZM191.607 48V42.944H189.607V48H191.607ZM189.765 42.4043C188.799 43.91 187.44 45.1419 185.656 46.0936L186.597 47.8584C188.653 46.7621 190.28 45.306 191.448 43.4837L189.765 42.4043ZM185.648 46.0981C183.941 47.0289 181.914 47.512 179.535 47.512V49.512C182.189 49.512 184.557 48.9711 186.605 47.8539L185.648 46.0981ZM179.535 47.512C176.815 47.512 174.354 46.8149 172.128 45.424L171.068 47.12C173.622 48.7157 176.452 49.512 179.535 49.512V47.512ZM172.139 45.4308C169.913 43.9998 168.13 41.9858 166.794 39.3553L165.011 40.2607C166.491 43.1769 168.505 45.4722 171.058 47.1132L172.139 45.4308ZM166.802 39.3717C165.513 36.7133 164.855 33.6241 164.855 30.08H162.855C162.855 33.8745 163.561 37.2707 165.003 40.2443L166.802 39.3717ZM191.607 30.144C191.607 27.2187 190.778 24.7904 189.019 22.9826L187.586 24.3774C188.899 25.7269 189.607 27.6079 189.607 30.144H191.607ZM189.029 22.9928C187.346 21.2142 185.249 20.312 182.798 20.312V22.312C184.7 22.312 186.272 22.9885 187.576 24.3672L189.029 22.9928ZM182.798 20.312C180.349 20.312 178.235 21.2132 176.514 22.9826L177.947 24.3774C179.298 22.9895 180.896 22.312 182.798 22.312V20.312ZM176.514 22.9829C174.793 24.7531 173.99 27.1637 173.99 30.08H175.99C175.99 27.535 176.682 25.6789 177.947 24.3771L176.514 22.9829ZM173.99 30.08C173.99 32.999 174.793 35.438 176.495 37.2855L177.966 35.9305C176.681 34.5353 175.99 32.6224 175.99 30.08H173.99ZM176.514 37.3054C178.235 39.0748 180.349 39.976 182.798 39.976V37.976C180.896 37.976 179.298 37.2985 177.947 35.9106L176.514 37.3054ZM182.798 39.976C185.249 39.976 187.346 39.0738 189.029 37.2952L187.576 35.9208C186.272 37.2995 184.7 37.976 182.798 37.976V39.976ZM189.019 37.3054C190.778 35.4976 191.607 33.0693 191.607 30.144H189.607C189.607 32.6801 188.899 34.5611 187.586 35.9106L189.019 37.3054ZM269.041 24.704L269.914 25.1926L269.918 25.1853L269.041 24.704ZM263.537 29.888L263.066 29.0061L263.537 29.888ZM247.537 31.872V30.872H246.537V31.872H247.537ZM247.537 48V49H248.537V48H247.537ZM236.593 48H235.593V49H236.593V48ZM236.593 3.072V2.072H235.593V3.072H236.593ZM263.409 4.928L263.856 4.03357V4.03357L263.409 4.928ZM247.537 11.904V10.904H246.537V11.904H247.537ZM247.537 23.168H246.537V24.168H247.537V23.168ZM269.833 17.536C269.833 19.9789 269.274 22.2015 268.164 24.2227L269.918 25.1853C271.197 22.8545 271.833 20.2985 271.833 17.536H269.833ZM268.168 24.2154C267.08 26.1584 265.397 27.7599 263.066 29.0061L264.008 30.7699C266.626 29.3708 268.612 27.5162 269.914 25.1926L268.168 24.2154ZM263.066 29.0061C260.774 30.231 257.875 30.872 254.321 30.872V32.872C258.106 32.872 261.351 32.1903 264.008 30.7699L263.066 29.0061ZM254.321 30.872H247.537V32.872H254.321V30.872ZM246.537 31.872V48H248.537V31.872H246.537ZM247.537 47H236.593V49H247.537V47ZM237.593 48V3.072H235.593V48H237.593ZM236.593 4.072H254.321V2.072H236.593V4.072ZM254.321 4.072C257.794 4.072 260.661 4.67193 262.962 5.82243L263.856 4.03357C261.208 2.7094 258.016 2.072 254.321 2.072V4.072ZM262.962 5.82242C265.279 6.98085 266.979 8.5565 268.108 10.5423L269.846 9.55369C268.501 7.1875 266.489 5.34981 263.856 4.03357L262.962 5.82242ZM268.108 10.5423C269.249 12.5495 269.833 14.8712 269.833 17.536H271.833C271.833 14.5688 271.18 11.8984 269.846 9.55369L268.108 10.5423ZM253.489 24.168C255.717 24.168 257.571 23.6468 258.853 22.418L257.469 20.974C256.703 21.7079 255.443 22.168 253.489 22.168V24.168ZM258.853 22.418C260.123 21.2012 260.697 19.5245 260.697 17.536H258.697C258.697 19.1315 258.247 20.2282 257.469 20.974L258.853 22.418ZM260.697 17.536C260.697 15.5475 260.123 13.8708 258.853 12.654L257.469 14.098C258.247 14.8438 258.697 15.9405 258.697 17.536H260.697ZM258.853 12.654C257.571 11.4252 255.717 10.904 253.489 10.904V12.904C255.443 12.904 256.703 13.3641 257.469 14.098L258.853 12.654ZM253.489 10.904H247.537V12.904H253.489V10.904ZM246.537 11.904V23.168H248.537V11.904H246.537ZM247.537 24.168H253.489V22.168H247.537V24.168ZM276.402 20.416L275.511 19.9633L275.505 19.9743L276.402 20.416ZM282.099 14.016L282.629 14.864L282.099 14.016ZM296.69 13.312L296.212 14.1899L296.22 14.1943L296.69 13.312ZM301.107 17.344L300.255 17.8681L302.107 20.877V17.344H301.107ZM301.107 12.288V11.288H300.107V12.288H301.107ZM312.051 12.288H313.051V11.288H312.051V12.288ZM312.051 48V49H313.051V48H312.051ZM301.107 48H300.107V49H301.107V48ZM301.107 42.944H302.107V39.531L300.265 42.4043L301.107 42.944ZM296.626 46.976L296.156 46.0936L296.148 46.0981L296.626 46.976ZM282.099 46.272L281.558 47.1132L281.569 47.12L282.099 46.272ZM276.402 39.808L275.503 40.2443L275.507 40.2525L275.511 40.2607L276.402 39.808ZM298.802 23.68L298.076 24.3673L298.086 24.3774L298.802 23.68ZM287.73 23.68L287.014 22.9826L287.014 22.9829L287.73 23.68ZM287.73 36.608L286.995 37.2855L287.004 37.2955L287.014 37.3054L287.73 36.608ZM298.802 36.608L298.086 35.9106L298.076 35.9208L298.802 36.608ZM275.354 30.08C275.354 26.5354 276.014 23.4702 277.3 20.8577L275.505 19.9743C274.061 22.9085 273.354 26.2859 273.354 30.08H275.354ZM277.294 20.8687C278.629 18.2402 280.409 16.2511 282.629 14.864L281.569 13.168C279.009 14.7676 276.992 17.0451 275.511 19.9633L277.294 20.8687ZM282.629 14.864C284.852 13.4746 287.333 12.776 290.099 12.776V10.776C286.976 10.776 284.124 11.5708 281.569 13.168L282.629 14.864ZM290.099 12.776C292.478 12.776 294.505 13.2591 296.212 14.1899L297.169 12.4341C295.121 11.3169 292.753 10.776 290.099 10.776V12.776ZM296.22 14.1943C298.002 15.1446 299.334 16.3719 300.255 17.8681L301.958 16.8199C300.831 14.9881 299.219 13.5274 297.161 12.4296L296.22 14.1943ZM302.107 17.344V12.288H300.107V17.344H302.107ZM301.107 13.288H312.051V11.288H301.107V13.288ZM311.051 12.288V48H313.051V12.288H311.051ZM312.051 47H301.107V49H312.051V47ZM302.107 48V42.944H300.107V48H302.107ZM300.265 42.4043C299.299 43.91 297.94 45.1419 296.156 46.0936L297.097 47.8584C299.153 46.7621 300.78 45.306 301.948 43.4837L300.265 42.4043ZM296.148 46.0981C294.441 47.0289 292.414 47.512 290.034 47.512V49.512C292.689 49.512 295.057 48.9711 297.105 47.8539L296.148 46.0981ZM290.034 47.512C287.315 47.512 284.854 46.8149 282.629 45.424L281.569 47.12C284.122 48.7157 286.952 49.512 290.034 49.512V47.512ZM282.639 45.4308C280.413 43.9998 278.63 41.9858 277.294 39.3553L275.511 40.2607C276.991 43.1769 279.005 45.4722 281.558 47.1132L282.639 45.4308ZM277.302 39.3717C276.013 36.7133 275.354 33.6241 275.354 30.08H273.354C273.354 33.8745 274.061 37.2707 275.503 40.2443L277.302 39.3717ZM302.107 30.144C302.107 27.2187 301.278 24.7904 299.519 22.9826L298.086 24.3774C299.399 25.7269 300.107 27.6079 300.107 30.144H302.107ZM299.529 22.9928C297.846 21.2142 295.749 20.312 293.298 20.312V22.312C295.2 22.312 296.772 22.9885 298.076 24.3672L299.529 22.9928ZM293.298 20.312C290.849 20.312 288.735 21.2132 287.014 22.9826L288.447 24.3774C289.798 22.9895 291.396 22.312 293.298 22.312V20.312ZM287.014 22.9829C285.293 24.7531 284.491 27.1637 284.491 30.08H286.491C286.491 27.535 287.182 25.6789 288.448 24.3771L287.014 22.9829ZM284.491 30.08C284.491 32.999 285.293 35.438 286.995 37.2855L288.466 35.9305C287.181 34.5353 286.491 32.6224 286.491 30.08H284.491ZM287.014 37.3054C288.735 39.0748 290.849 39.976 293.298 39.976V37.976C291.396 37.976 289.798 37.2985 288.447 35.9106L287.014 37.3054ZM293.298 39.976C295.749 39.976 297.846 39.0738 299.529 37.2952L298.076 35.9208C296.772 37.2995 295.2 37.976 293.298 37.976V39.976ZM299.519 37.3054C301.278 35.4976 302.107 33.0693 302.107 30.144H300.107C300.107 32.6801 299.399 34.5611 298.086 35.9106L299.519 37.3054ZM341.792 48L340.983 48.5878L341.282 49H341.792V48ZM330.912 33.024L331.721 32.4362L329.912 29.9462V33.024H330.912ZM330.912 48V49H331.912V48H330.912ZM319.968 48H318.968V49H319.968V48ZM319.968 0.639999V-0.360001H318.968V0.639999H319.968ZM330.912 0.639999H331.912V-0.360001H330.912V0.639999ZM330.912 26.816H329.912V29.8338L331.714 27.4132L330.912 26.816ZM341.728 12.288V11.288H341.226L340.926 11.6908L341.728 12.288ZM355.232 12.288L356.002 12.926L357.359 11.288H355.232V12.288ZM340.384 30.208L339.614 29.57L339.081 30.213L339.619 30.852L340.384 30.208ZM355.36 48V49H357.509L356.125 47.356L355.36 48ZM342.601 47.4122L331.721 32.4362L330.103 33.6118L340.983 48.5878L342.601 47.4122ZM329.912 33.024V48H331.912V33.024H329.912ZM330.912 47H319.968V49H330.912V47ZM320.968 48V0.639999H318.968V48H320.968ZM319.968 1.64H330.912V-0.360001H319.968V1.64ZM329.912 0.639999V26.816H331.912V0.639999H329.912ZM331.714 27.4132L342.53 12.8852L340.926 11.6908L330.11 26.2188L331.714 27.4132ZM341.728 13.288H355.232V11.288H341.728V13.288ZM354.462 11.65L339.614 29.57L341.154 30.846L356.002 12.926L354.462 11.65ZM339.619 30.852L354.595 48.644L356.125 47.356L341.149 29.564L339.619 30.852ZM355.36 47H341.792V49H355.36V47ZM393.003 32.768V33.768H393.894L393.996 32.8826L393.003 32.768ZM368.234 32.768V31.768H367.155L367.237 32.8447L368.234 32.768ZM370.346 37.888L369.652 38.6074L369.665 38.6196L369.678 38.6313L370.346 37.888ZM380.715 36.16V35.16H380.076L379.807 35.7399L380.715 36.16ZM392.362 36.16L393.332 36.4067L393.649 35.16H392.362V36.16ZM389.099 42.496L388.333 41.8523L388.325 41.8628L389.099 42.496ZM383.275 46.912L383.688 47.8224L383.275 46.912ZM366.059 46.272L365.579 47.1494L366.059 46.272ZM359.659 39.872L360.533 39.3875L359.659 39.872ZM359.595 20.416L358.72 19.9315L358.714 19.9419L359.595 20.416ZM365.995 14.016L366.474 14.8934L365.995 14.016ZM384.618 13.952L384.144 14.832V14.832L384.618 13.952ZM390.891 20.16L390.016 20.6457L390.022 20.6561L390.891 20.16ZM381.995 26.688V27.688H382.995V26.688H381.995ZM380.074 22.208L380.729 21.4523L380.074 22.208ZM370.603 22.144L369.962 21.3758L369.956 21.3811L369.95 21.3866L370.603 22.144ZM368.298 26.688L367.31 26.5376L367.135 27.688H368.298V26.688ZM392.194 29.568C392.194 30.5504 392.133 31.5787 392.009 32.6534L393.996 32.8826C394.128 31.7386 394.194 30.6336 394.194 29.568H392.194ZM393.003 31.768H368.234V33.768H393.003V31.768ZM367.237 32.8447C367.421 35.2339 368.192 37.1977 369.652 38.6074L371.041 37.1686C370.027 36.189 369.389 34.7395 369.232 32.6913L367.237 32.8447ZM369.678 38.6313C371.154 39.96 372.954 40.616 375.018 40.616V38.616C373.413 38.616 372.099 38.12 371.015 37.1447L369.678 38.6313ZM375.018 40.616C376.525 40.616 377.871 40.2974 379.009 39.6069C380.152 38.9136 381.017 37.8858 381.622 36.5801L379.807 35.7399C379.345 36.7382 378.728 37.4384 377.972 37.8971C377.211 38.3586 376.243 38.616 375.018 38.616V40.616ZM380.715 37.16H392.362V35.16H380.715V37.16ZM391.393 35.9133C390.834 38.1121 389.816 40.0888 388.333 41.8524L389.864 43.1396C391.538 41.1485 392.697 38.9013 393.332 36.4067L391.393 35.9133ZM388.325 41.8628C386.892 43.6139 385.077 44.9944 382.861 46.0016L383.688 47.8224C386.166 46.6963 388.233 45.1328 389.872 43.1292L388.325 41.8628ZM382.861 46.0016C380.659 47.0022 378.179 47.512 375.402 47.512V49.512C378.429 49.512 381.196 48.9551 383.688 47.8224L382.861 46.0016ZM375.402 47.512C372.05 47.512 369.104 46.7979 366.538 45.3946L365.579 47.1494C368.474 48.7327 371.757 49.512 375.402 49.512V47.512ZM366.538 45.3946C363.977 43.994 361.979 41.9984 360.533 39.3875L358.784 40.3565C360.41 43.2923 362.679 45.5634 365.579 47.1494L366.538 45.3946ZM360.533 39.3875C359.092 36.786 358.354 33.7156 358.354 30.144H356.354C356.354 33.9964 357.153 37.4114 358.784 40.3565L360.533 39.3875ZM358.354 30.144C358.354 26.5679 359.073 23.4937 360.475 20.8901L358.714 19.9419C357.129 22.8849 356.354 26.2961 356.354 30.144H358.354ZM360.469 20.9005C361.915 18.2896 363.913 16.294 366.474 14.8934L365.515 13.1386C362.615 14.7246 360.346 16.9957 358.72 19.9315L360.469 20.9005ZM366.474 14.8934C369.039 13.491 372.005 12.776 375.402 12.776V10.776C371.717 10.776 368.412 11.5543 365.515 13.1386L366.474 14.8934ZM375.402 12.776C378.715 12.776 381.62 13.47 384.144 14.832L385.093 13.072C382.241 11.5327 379.002 10.776 375.402 10.776V12.776ZM384.144 14.832C386.662 16.1914 388.615 18.1233 390.016 20.6456L391.765 19.6744C390.179 16.8207 387.951 14.6139 385.093 13.072L384.144 14.832ZM390.022 20.6561C391.459 23.1707 392.194 26.1303 392.194 29.568H394.194C394.194 25.8377 393.394 22.5253 391.759 19.6639L390.022 20.6561ZM382.995 26.688C382.995 24.5559 382.254 22.7735 380.729 21.4523L379.42 22.9637C380.455 23.8611 380.995 25.0654 380.995 26.688H382.995ZM380.729 21.4523C379.243 20.1643 377.401 19.544 375.275 19.544V21.544C376.988 21.544 378.346 22.033 379.42 22.9637L380.729 21.4523ZM375.275 19.544C373.231 19.544 371.441 20.1439 369.962 21.3758L371.243 22.9122C372.324 22.0107 373.648 21.544 375.275 21.544V19.544ZM369.95 21.3866C368.495 22.6408 367.636 24.3919 367.31 26.5376L369.287 26.8384C369.558 25.0588 370.236 23.7806 371.255 22.9014L369.95 21.3866ZM368.298 27.688H381.995V25.688H368.298V27.688ZM418.872 38.72H419.872V37.72H418.872V38.72ZM418.872 48V49H419.872V48H418.872ZM404.024 45.12L403.361 45.869L403.37 45.8762L404.024 45.12ZM400.696 21.376H401.696V20.376H400.696V21.376ZM396.344 21.376H395.344V22.376H396.344V21.376ZM396.344 12.288V11.288H395.344V12.288H396.344ZM400.696 12.288V13.288H401.696V12.288H400.696ZM400.696 3.584V2.584H399.696V3.584H400.696ZM411.64 3.584H412.64V2.584H411.64V3.584ZM411.64 12.288H410.64V13.288H411.64V12.288ZM418.808 12.288H419.808V11.288H418.808V12.288ZM418.808 21.376V22.376H419.808V21.376H418.808ZM411.64 21.376V20.376H410.64V21.376H411.64ZM412.408 38.016L411.732 38.7532L412.408 38.016ZM417.872 38.72V48H419.872V38.72H417.872ZM418.872 47H413.304V49H418.872V47ZM413.304 47C409.491 47 406.66 46.0786 404.678 44.3638L403.37 45.8762C405.826 48.0014 409.181 49 413.304 49V47ZM404.687 44.371C402.769 42.6746 401.696 39.8324 401.696 35.584H399.696C399.696 40.1249 400.842 43.6401 403.361 45.869L404.687 44.371ZM401.696 35.584V21.376H399.696V35.584H401.696ZM400.696 20.376H396.344V22.376H400.696V20.376ZM397.344 21.376V12.288H395.344V21.376H397.344ZM396.344 13.288H400.696V11.288H396.344V13.288ZM401.696 12.288V3.584H399.696V12.288H401.696ZM400.696 4.584H411.64V2.584H400.696V4.584ZM410.64 3.584V12.288H412.64V3.584H410.64ZM411.64 13.288H418.808V11.288H411.64V13.288ZM417.808 12.288V21.376H419.808V12.288H417.808ZM418.808 20.376H411.64V22.376H418.808V20.376ZM410.64 21.376V35.712H412.64V21.376H410.64ZM410.64 35.712C410.64 36.91 410.925 38.0129 411.732 38.7532L413.084 37.2788C412.867 37.0804 412.64 36.6474 412.64 35.712H410.64ZM411.732 38.7532C412.522 39.4775 413.689 39.72 414.968 39.72V37.72C413.858 37.72 413.318 37.4932 413.084 37.2788L411.732 38.7532ZM414.968 39.72H418.872V37.72H414.968V39.72Z" fill="black"/>
</g>
<defs>
<filter id="filter0_d_22_4" x="0.968018" y="0.640015" width="421.904" height="72.96" filterUnits="userSpaceOnUse" color-interpolation-filters="sRGB">
<feFlood flood-opacity="0" result="BackgroundImageFix"/>
<feColorMatrix in="SourceAlpha" type="matrix" values="0 0 0 0 0 0 0 0 0 0 0 0 0 0 0 0 0 0 127 0" result="hardAlpha"/>
<feOffset dy="4"/>
<feGaussianBlur stdDeviation="2"/>
<feComposite in2="hardAlpha" operator="out"/>
<feColorMatrix type="matrix" values="0 0 0 0 0 0 0 0 0 0 0 0 0 0 0 0 0 0 0.25 0"/>
<feBlend mode="normal" in2="BackgroundImageFix" result="effect1_dropShadow_22_4"/>
<feBlend mode="normal" in="SourceGraphic" in2="effect1_dropShadow_22_4" result="shape"/>
</filter>
</defs>
</svg>
