<svg width="363" height="37" viewBox="0 0 363 37" fill="none" xmlns="http://www.w3.org/2000/svg">
<path d="M26.656 13.152C26.656 15.104 26.208 16.896 25.312 18.528C24.416 20.128 23.04 21.424 21.184 22.416C19.328 23.408 17.024 23.904 14.272 23.904H9.184V36H0.976V2.304H14.272C16.96 2.304 19.232 2.768 21.088 3.696C22.944 4.624 24.336 5.904 25.264 7.536C26.192 9.168 26.656 11.04 26.656 13.152ZM13.648 17.376C15.216 17.376 16.384 17.008 17.152 16.272C17.92 15.536 18.304 14.496 18.304 13.152C18.304 11.808 17.92 10.768 17.152 10.032C16.384 9.296 15.216 8.928 13.648 8.928H9.184V17.376H13.648ZM29.2971 22.56C29.2971 19.808 29.8091 17.392 30.8331 15.312C31.8891 13.232 33.3131 11.632 35.1051 10.512C36.8971 9.392 38.8971 8.832 41.1051 8.832C42.9931 8.832 44.6411 9.216 46.0491 9.984C47.4891 10.752 48.5931 11.76 49.3611 13.008V9.216H57.5691V36H49.3611V32.208C48.5611 33.456 47.4411 34.464 46.0011 35.232C44.5931 36 42.9451 36.384 41.0571 36.384C38.8811 36.384 36.8971 35.824 35.1051 34.704C33.3131 33.552 31.8891 31.936 30.8331 29.856C29.8091 27.744 29.2971 25.312 29.2971 22.56ZM49.3611 22.608C49.3611 20.56 48.7851 18.944 47.6331 17.76C46.5131 16.576 45.1371 15.984 43.5051 15.984C41.8731 15.984 40.4811 16.576 39.3291 17.76C38.2091 18.912 37.6491 20.512 37.6491 22.56C37.6491 24.608 38.2091 26.24 39.3291 27.456C40.4811 28.64 41.8731 29.232 43.5051 29.232C45.1371 29.232 46.5131 28.64 47.6331 27.456C48.7851 26.272 49.3611 24.656 49.3611 22.608ZM79.8753 36L71.7153 24.768V36H63.5073V0.48H71.7153V20.112L79.8273 9.216H89.9553L78.8193 22.656L90.0513 36H79.8753ZM118.427 22.176C118.427 22.944 118.379 23.744 118.283 24.576H99.7071C99.8351 26.24 100.363 27.52 101.291 28.416C102.251 29.28 103.419 29.712 104.795 29.712C106.843 29.712 108.267 28.848 109.067 27.12H117.803C117.355 28.88 116.539 30.464 115.355 31.872C114.203 33.28 112.747 34.384 110.987 35.184C109.227 35.984 107.259 36.384 105.083 36.384C102.459 36.384 100.123 35.824 98.0751 34.704C96.0271 33.584 94.4271 31.984 93.2751 29.904C92.1231 27.824 91.5471 25.392 91.5471 22.608C91.5471 19.824 92.1071 17.392 93.2271 15.312C94.3791 13.232 95.9791 11.632 98.0271 10.512C100.075 9.392 102.427 8.832 105.083 8.832C107.675 8.832 109.979 9.376 111.995 10.464C114.011 11.552 115.579 13.104 116.699 15.12C117.851 17.136 118.427 19.488 118.427 22.176ZM110.027 20.016C110.027 18.608 109.547 17.488 108.587 16.656C107.627 15.824 106.427 15.408 104.987 15.408C103.611 15.408 102.443 15.808 101.483 16.608C100.555 17.408 99.9791 18.544 99.7551 20.016H110.027ZM137.685 29.04V36H133.509C130.533 36 128.213 35.28 126.549 33.84C124.885 32.368 124.053 29.984 124.053 26.688V16.032H120.789V9.216H124.053V2.688H132.261V9.216H137.637V16.032H132.261V26.784C132.261 27.584 132.453 28.16 132.837 28.512C133.221 28.864 133.861 29.04 134.757 29.04H137.685ZM171.965 36L160.637 21.12V36H152.429V2.304H160.637V17.088L171.869 2.304H181.517L168.461 18.816L181.997 36H171.965ZM206.538 15.744V22.56H185.418V15.744H206.538ZM225.934 36.336C223.47 36.336 221.262 35.936 219.31 35.136C217.358 34.336 215.79 33.152 214.606 31.584C213.454 30.016 212.846 28.128 212.782 25.92H221.518C221.646 27.168 222.078 28.128 222.814 28.8C223.55 29.44 224.51 29.76 225.694 29.76C226.91 29.76 227.87 29.488 228.574 28.944C229.278 28.368 229.63 27.584 229.63 26.592C229.63 25.76 229.342 25.072 228.766 24.528C228.222 23.984 227.534 23.536 226.702 23.184C225.902 22.832 224.75 22.432 223.246 21.984C221.07 21.312 219.294 20.64 217.918 19.968C216.542 19.296 215.358 18.304 214.366 16.992C213.374 15.68 212.878 13.968 212.878 11.856C212.878 8.72 214.014 6.272 216.286 4.512C218.558 2.72 221.518 1.824 225.166 1.824C228.878 1.824 231.87 2.72 234.142 4.512C236.414 6.272 237.63 8.736 237.79 11.904H228.91C228.846 10.816 228.446 9.968 227.71 9.36C226.974 8.72 226.03 8.4 224.878 8.4C223.886 8.4 223.086 8.672 222.478 9.216C221.87 9.728 221.566 10.48 221.566 11.472C221.566 12.56 222.078 13.408 223.102 14.016C224.126 14.624 225.726 15.28 227.902 15.984C230.078 16.72 231.838 17.424 233.182 18.096C234.558 18.768 235.742 19.744 236.734 21.024C237.726 22.304 238.222 23.952 238.222 25.968C238.222 27.888 237.726 29.632 236.734 31.2C235.774 32.768 234.366 34.016 232.51 34.944C230.654 35.872 228.462 36.336 225.934 36.336ZM277.449 8.928C280.777 8.928 283.417 9.936 285.369 11.952C287.353 13.968 288.345 16.768 288.345 20.352V36H280.185V21.456C280.185 19.728 279.721 18.4 278.793 17.472C277.897 16.512 276.649 16.032 275.049 16.032C273.449 16.032 272.185 16.512 271.257 17.472C270.361 18.4 269.913 19.728 269.913 21.456V36H261.753V21.456C261.753 19.728 261.289 18.4 260.361 17.472C259.465 16.512 258.217 16.032 256.617 16.032C255.017 16.032 253.753 16.512 252.825 17.472C251.929 18.4 251.481 19.728 251.481 21.456V36H243.273V9.216H251.481V12.576C252.313 11.456 253.401 10.576 254.745 9.936C256.089 9.264 257.609 8.928 259.305 8.928C261.321 8.928 263.113 9.36 264.681 10.224C266.281 11.088 267.529 12.32 268.425 13.92C269.353 12.448 270.617 11.248 272.217 10.32C273.817 9.392 275.561 8.928 277.449 8.928ZM292.453 22.56C292.453 19.808 292.965 17.392 293.989 15.312C295.045 13.232 296.469 11.632 298.261 10.512C300.053 9.392 302.053 8.832 304.261 8.832C306.149 8.832 307.797 9.216 309.205 9.984C310.645 10.752 311.749 11.76 312.517 13.008V9.216H320.725V36H312.517V32.208C311.717 33.456 310.597 34.464 309.157 35.232C307.749 36 306.101 36.384 304.213 36.384C302.037 36.384 300.053 35.824 298.261 34.704C296.469 33.552 295.045 31.936 293.989 29.856C292.965 27.744 292.453 25.312 292.453 22.56ZM312.517 22.608C312.517 20.56 311.941 18.944 310.789 17.76C309.669 16.576 308.293 15.984 306.661 15.984C305.029 15.984 303.637 16.576 302.485 17.76C301.365 18.912 300.805 20.512 300.805 22.56C300.805 24.608 301.365 26.24 302.485 27.456C303.637 28.64 305.029 29.232 306.661 29.232C308.293 29.232 309.669 28.64 310.789 27.456C311.941 26.272 312.517 24.656 312.517 22.608ZM334.872 13.68C335.832 12.208 337.032 11.056 338.472 10.224C339.912 9.36 341.512 8.928 343.272 8.928V17.616H341.016C338.968 17.616 337.432 18.064 336.408 18.96C335.384 19.824 334.872 21.36 334.872 23.568V36H326.664V9.216H334.872V13.68ZM362.123 29.04V36H357.947C354.971 36 352.651 35.28 350.987 33.84C349.323 32.368 348.491 29.984 348.491 26.688V16.032H345.227V9.216H348.491V2.688H356.699V9.216H362.075V16.032H356.699V26.784C356.699 27.584 356.891 28.16 357.275 28.512C357.659 28.864 358.299 29.04 359.195 29.04H362.123Z" fill="black"/>
</svg>
