<svg width="224" height="37" viewBox="0 0 224 37" fill="none" xmlns="http://www.w3.org/2000/svg">
<path d="M13.984 27L8.008 16.74H4.048V27H0.772V1.908H8.872C10.768 1.908 12.364 2.232 13.66 2.88C14.98 3.528 15.964 4.404 16.612 5.508C17.26 6.612 17.584 7.872 17.584 9.288C17.584 11.016 17.08 12.54 16.072 13.86C15.088 15.18 13.6 16.056 11.608 16.488L17.908 27H13.984ZM4.048 14.112H8.872C10.648 14.112 11.98 13.68 12.868 12.816C13.756 11.928 14.2 10.752 14.2 9.288C14.2 7.8 13.756 6.648 12.868 5.832C12.004 5.016 10.672 4.608 8.872 4.608H4.048V14.112ZM25.9503 10.908C26.5983 9.78 27.5583 8.844 28.8303 8.1C30.1263 7.332 31.6263 6.948 33.3303 6.948C35.0823 6.948 36.6663 7.368 38.0823 8.208C39.5223 9.048 40.6503 10.236 41.4663 11.772C42.2823 13.284 42.6903 15.048 42.6903 17.064C42.6903 19.056 42.2823 20.832 41.4663 22.392C40.6503 23.952 39.5223 25.164 38.0823 26.028C36.6663 26.892 35.0823 27.324 33.3303 27.324C31.6503 27.324 30.1623 26.952 28.8663 26.208C27.5943 25.44 26.6223 24.492 25.9503 23.364V36.36H22.6743V7.272H25.9503V10.908ZM39.3423 17.064C39.3423 15.576 39.0423 14.28 38.4423 13.176C37.8423 12.072 37.0263 11.232 35.9943 10.656C34.9863 10.08 33.8703 9.792 32.6463 9.792C31.4463 9.792 30.3303 10.092 29.2983 10.692C28.2903 11.268 27.4743 12.12 26.8503 13.248C26.2503 14.352 25.9503 15.636 25.9503 17.1C25.9503 18.588 26.2503 19.896 26.8503 21.024C27.4743 22.128 28.2903 22.98 29.2983 23.58C30.3303 24.156 31.4463 24.444 32.6463 24.444C33.8703 24.444 34.9863 24.156 35.9943 23.58C37.0263 22.98 37.8423 22.128 38.4423 21.024C39.0423 19.896 39.3423 18.576 39.3423 17.064ZM55.9881 7.524C56.1561 5.316 57.0081 3.588 58.5441 2.34C60.0801 1.092 62.0721 0.467998 64.5201 0.467998C66.1521 0.467998 67.5561 0.767999 68.7321 1.368C69.9321 1.944 70.8321 2.736 71.4321 3.744C72.0561 4.752 72.3681 5.892 72.3681 7.164C72.3681 8.652 71.9361 9.936 71.0721 11.016C70.2321 12.096 69.1281 12.792 67.7601 13.104V13.284C69.3201 13.668 70.5561 14.424 71.4681 15.552C72.3801 16.68 72.8361 18.156 72.8361 19.98C72.8361 21.348 72.5241 22.584 71.9001 23.688C71.2761 24.768 70.3401 25.62 69.0921 26.244C67.8441 26.868 66.3441 27.18 64.5921 27.18C62.0481 27.18 59.9601 26.52 58.3281 25.2C56.6961 23.856 55.7841 21.96 55.5921 19.512H58.7601C58.9281 20.952 59.5161 22.128 60.5241 23.04C61.5321 23.952 62.8761 24.408 64.5561 24.408C66.2361 24.408 67.5081 23.976 68.3721 23.112C69.2601 22.224 69.7041 21.084 69.7041 19.692C69.7041 17.892 69.1041 16.596 67.9041 15.804C66.7041 15.012 64.8921 14.616 62.4681 14.616H61.6401V11.88H62.5041C64.7121 11.856 66.3801 11.496 67.5081 10.8C68.6361 10.08 69.2001 8.976 69.2001 7.488C69.2001 6.216 68.7801 5.196 67.9401 4.428C67.1241 3.66 65.9481 3.276 64.4121 3.276C62.9241 3.276 61.7241 3.66 60.8121 4.428C59.9001 5.196 59.3601 6.228 59.1921 7.524H55.9881ZM78.8433 27.216C78.2193 27.216 77.6913 27 77.2593 26.568C76.8273 26.136 76.6113 25.608 76.6113 24.984C76.6113 24.36 76.8273 23.832 77.2593 23.4C77.6913 22.968 78.2193 22.752 78.8433 22.752C79.4433 22.752 79.9473 22.968 80.3553 23.4C80.7873 23.832 81.0033 24.36 81.0033 24.984C81.0033 25.608 80.7873 26.136 80.3553 26.568C79.9473 27 79.4433 27.216 78.8433 27.216ZM101.414 3.816H88.7779V12.024C89.3299 11.256 90.1459 10.632 91.2259 10.152C92.3059 9.648 93.4699 9.396 94.7179 9.396C96.7099 9.396 98.3299 9.816 99.5779 10.656C100.826 11.472 101.714 12.54 102.242 13.86C102.794 15.156 103.07 16.536 103.07 18C103.07 19.728 102.746 21.276 102.098 22.644C101.45 24.012 100.454 25.092 99.1099 25.884C97.7899 26.676 96.1459 27.072 94.1779 27.072C91.6579 27.072 89.6179 26.424 88.0579 25.128C86.4979 23.832 85.5499 22.104 85.2139 19.944H88.4179C88.7299 21.312 89.3899 22.38 90.3979 23.148C91.4059 23.916 92.6779 24.3 94.2139 24.3C96.1099 24.3 97.5379 23.736 98.4979 22.608C99.4579 21.456 99.9379 19.944 99.9379 18.072C99.9379 16.2 99.4579 14.76 98.4979 13.752C97.5379 12.72 96.1219 12.204 94.2499 12.204C92.9779 12.204 91.8619 12.516 90.9019 13.14C89.9659 13.74 89.2819 14.568 88.8499 15.624H85.7539V0.935999H101.414V3.816ZM107.423 13.716C107.423 9.588 108.095 6.372 109.439 4.068C110.783 1.74 113.135 0.575999 116.495 0.575999C119.831 0.575999 122.171 1.74 123.515 4.068C124.859 6.372 125.531 9.588 125.531 13.716C125.531 17.916 124.859 21.18 123.515 23.508C122.171 25.836 119.831 27 116.495 27C113.135 27 110.783 25.836 109.439 23.508C108.095 21.18 107.423 17.916 107.423 13.716ZM122.291 13.716C122.291 11.628 122.147 9.864 121.859 8.424C121.595 6.96 121.031 5.784 120.167 4.896C119.327 4.008 118.103 3.564 116.495 3.564C114.863 3.564 113.615 4.008 112.751 4.896C111.911 5.784 111.347 6.96 111.059 8.424C110.795 9.864 110.663 11.628 110.663 13.716C110.663 15.876 110.795 17.688 111.059 19.152C111.347 20.616 111.911 21.792 112.751 22.68C113.615 23.568 114.863 24.012 116.495 24.012C118.103 24.012 119.327 23.568 120.167 22.68C121.031 21.792 121.595 20.616 121.859 19.152C122.147 17.688 122.291 15.876 122.291 13.716ZM130.029 13.716C130.029 9.588 130.701 6.372 132.045 4.068C133.389 1.74 135.741 0.575999 139.101 0.575999C142.437 0.575999 144.777 1.74 146.121 4.068C147.465 6.372 148.137 9.588 148.137 13.716C148.137 17.916 147.465 21.18 146.121 23.508C144.777 25.836 142.437 27 139.101 27C135.741 27 133.389 25.836 132.045 23.508C130.701 21.18 130.029 17.916 130.029 13.716ZM144.897 13.716C144.897 11.628 144.753 9.864 144.465 8.424C144.201 6.96 143.637 5.784 142.773 4.896C141.933 4.008 140.709 3.564 139.101 3.564C137.469 3.564 136.221 4.008 135.357 4.896C134.517 5.784 133.953 6.96 133.665 8.424C133.401 9.864 133.269 11.628 133.269 13.716C133.269 15.876 133.401 17.688 133.665 19.152C133.953 20.616 134.517 21.792 135.357 22.68C136.221 23.568 137.469 24.012 139.101 24.012C140.709 24.012 141.933 23.568 142.773 22.68C143.637 21.792 144.201 20.616 144.465 19.152C144.753 17.688 144.897 15.876 144.897 13.716ZM154.218 27.216C153.594 27.216 153.066 27 152.634 26.568C152.202 26.136 151.986 25.608 151.986 24.984C151.986 24.36 152.202 23.832 152.634 23.4C153.066 22.968 153.594 22.752 154.218 22.752C154.818 22.752 155.322 22.968 155.73 23.4C156.162 23.832 156.378 24.36 156.378 24.984C156.378 25.608 156.162 26.136 155.73 26.568C155.322 27 154.818 27.216 154.218 27.216ZM160.193 13.716C160.193 9.588 160.865 6.372 162.209 4.068C163.553 1.74 165.905 0.575999 169.265 0.575999C172.601 0.575999 174.941 1.74 176.285 4.068C177.629 6.372 178.301 9.588 178.301 13.716C178.301 17.916 177.629 21.18 176.285 23.508C174.941 25.836 172.601 27 169.265 27C165.905 27 163.553 25.836 162.209 23.508C160.865 21.18 160.193 17.916 160.193 13.716ZM175.061 13.716C175.061 11.628 174.917 9.864 174.629 8.424C174.365 6.96 173.801 5.784 172.937 4.896C172.097 4.008 170.873 3.564 169.265 3.564C167.633 3.564 166.385 4.008 165.521 4.896C164.681 5.784 164.117 6.96 163.829 8.424C163.565 9.864 163.433 11.628 163.433 13.716C163.433 15.876 163.565 17.688 163.829 19.152C164.117 20.616 164.681 21.792 165.521 22.68C166.385 23.568 167.633 24.012 169.265 24.012C170.873 24.012 172.097 23.568 172.937 22.68C173.801 21.792 174.365 20.616 174.629 19.152C174.917 17.688 175.061 15.876 175.061 13.716ZM182.798 13.716C182.798 9.588 183.47 6.372 184.814 4.068C186.158 1.74 188.51 0.575999 191.87 0.575999C195.206 0.575999 197.546 1.74 198.89 4.068C200.234 6.372 200.906 9.588 200.906 13.716C200.906 17.916 200.234 21.18 198.89 23.508C197.546 25.836 195.206 27 191.87 27C188.51 27 186.158 25.836 184.814 23.508C183.47 21.18 182.798 17.916 182.798 13.716ZM197.666 13.716C197.666 11.628 197.522 9.864 197.234 8.424C196.97 6.96 196.406 5.784 195.542 4.896C194.702 4.008 193.478 3.564 191.87 3.564C190.238 3.564 188.99 4.008 188.126 4.896C187.286 5.784 186.722 6.96 186.434 8.424C186.17 9.864 186.038 11.628 186.038 13.716C186.038 15.876 186.17 17.688 186.434 19.152C186.722 20.616 187.286 21.792 188.126 22.68C188.99 23.568 190.238 24.012 191.87 24.012C193.478 24.012 194.702 23.568 195.542 22.68C196.406 21.792 196.97 20.616 197.234 19.152C197.522 17.688 197.666 15.876 197.666 13.716ZM205.404 13.716C205.404 9.588 206.076 6.372 207.42 4.068C208.764 1.74 211.116 0.575999 214.476 0.575999C217.812 0.575999 220.152 1.74 221.496 4.068C222.84 6.372 223.512 9.588 223.512 13.716C223.512 17.916 222.84 21.18 221.496 23.508C220.152 25.836 217.812 27 214.476 27C211.116 27 208.764 25.836 207.42 23.508C206.076 21.18 205.404 17.916 205.404 13.716ZM220.272 13.716C220.272 11.628 220.128 9.864 219.84 8.424C219.576 6.96 219.012 5.784 218.148 4.896C217.308 4.008 216.084 3.564 214.476 3.564C212.844 3.564 211.596 4.008 210.732 4.896C209.892 5.784 209.328 6.96 209.04 8.424C208.776 9.864 208.644 11.628 208.644 13.716C208.644 15.876 208.776 17.688 209.04 19.152C209.328 20.616 209.892 21.792 210.732 22.68C211.596 23.568 212.844 24.012 214.476 24.012C216.084 24.012 217.308 23.568 218.148 22.68C219.012 21.792 219.576 20.616 219.84 19.152C220.128 17.688 220.272 15.876 220.272 13.716Z" fill="black"/>
</svg>
