<svg width="208" height="32" viewBox="0 0 208 32" fill="none" xmlns="http://www.w3.org/2000/svg">
<path d="M8.728 26.252C7.072 26.252 5.584 25.964 4.264 25.388C2.968 24.788 1.948 23.972 1.204 22.94C0.46 21.884 0.0760001 20.672 0.0520001 19.304H3.544C3.664 20.48 4.144 21.476 4.984 22.292C5.848 23.084 7.096 23.48 8.728 23.48C10.288 23.48 11.512 23.096 12.4 22.328C13.312 21.536 13.768 20.528 13.768 19.304C13.768 18.344 13.504 17.564 12.976 16.964C12.448 16.364 11.788 15.908 10.996 15.596C10.204 15.284 9.136 14.948 7.792 14.588C6.136 14.156 4.804 13.724 3.796 13.292C2.812 12.86 1.96 12.188 1.24 11.276C0.544 10.34 0.196 9.092 0.196 7.532C0.196 6.164 0.544 4.952 1.24 3.896C1.936 2.84 2.908 2.024 4.156 1.448C5.428 0.871999 6.88 0.583999 8.512 0.583999C10.864 0.583999 12.784 1.172 14.272 2.348C15.784 3.524 16.636 5.084 16.828 7.028H13.228C13.108 6.068 12.604 5.228 11.716 4.508C10.828 3.764 9.652 3.392 8.188 3.392C6.82 3.392 5.704 3.752 4.84 4.472C3.976 5.168 3.544 6.152 3.544 7.424C3.544 8.336 3.796 9.08 4.3 9.656C4.828 10.232 5.464 10.676 6.208 10.988C6.976 11.276 8.044 11.612 9.412 11.996C11.068 12.452 12.4 12.908 13.408 13.364C14.416 13.796 15.28 14.48 16 15.416C16.72 16.328 17.08 17.576 17.08 19.16C17.08 20.384 16.756 21.536 16.108 22.616C15.46 23.696 14.5 24.572 13.228 25.244C11.956 25.916 10.456 26.252 8.728 26.252ZM29.7129 0.907999C32.4489 0.907999 34.8129 1.424 36.8049 2.456C38.8209 3.464 40.3569 4.916 41.4129 6.812C42.4929 8.708 43.0329 10.94 43.0329 13.508C43.0329 16.076 42.4929 18.308 41.4129 20.204C40.3569 22.076 38.8209 23.516 36.8049 24.524C34.8129 25.508 32.4489 26 29.7129 26H21.9009V0.907999H29.7129ZM29.7129 23.3C32.9529 23.3 35.4249 22.448 37.1289 20.744C38.8329 19.016 39.6849 16.604 39.6849 13.508C39.6849 10.388 38.8209 7.952 37.0929 6.2C35.3889 4.448 32.9289 3.572 29.7129 3.572H25.1769V23.3H29.7129ZM50.738 21.464L46.706 31.148H44.51L47.138 21.464H50.738ZM62.4468 26.252C60.7908 26.252 59.3028 25.964 57.9828 25.388C56.6868 24.788 55.6668 23.972 54.9228 22.94C54.1788 21.884 53.7948 20.672 53.7708 19.304H57.2628C57.3828 20.48 57.8628 21.476 58.7028 22.292C59.5668 23.084 60.8148 23.48 62.4468 23.48C64.0068 23.48 65.2308 23.096 66.1188 22.328C67.0308 21.536 67.4868 20.528 67.4868 19.304C67.4868 18.344 67.2228 17.564 66.6948 16.964C66.1668 16.364 65.5068 15.908 64.7148 15.596C63.9228 15.284 62.8548 14.948 61.5108 14.588C59.8548 14.156 58.5228 13.724 57.5148 13.292C56.5308 12.86 55.6788 12.188 54.9588 11.276C54.2628 10.34 53.9148 9.092 53.9148 7.532C53.9148 6.164 54.2628 4.952 54.9588 3.896C55.6548 2.84 56.6268 2.024 57.8748 1.448C59.1468 0.871999 60.5988 0.583999 62.2308 0.583999C64.5828 0.583999 66.5028 1.172 67.9908 2.348C69.5028 3.524 70.3548 5.084 70.5468 7.028H66.9468C66.8268 6.068 66.3228 5.228 65.4348 4.508C64.5468 3.764 63.3708 3.392 61.9068 3.392C60.5388 3.392 59.4228 3.752 58.5588 4.472C57.6948 5.168 57.2628 6.152 57.2628 7.424C57.2628 8.336 57.5148 9.08 58.0188 9.656C58.5468 10.232 59.1828 10.676 59.9268 10.988C60.6948 11.276 61.7628 11.612 63.1308 11.996C64.7868 12.452 66.1188 12.908 67.1268 13.364C68.1348 13.796 68.9988 14.48 69.7188 15.416C70.4388 16.328 70.7988 17.576 70.7988 19.16C70.7988 20.384 70.4748 21.536 69.8268 22.616C69.1788 23.696 68.2188 24.572 66.9468 25.244C65.6748 25.916 64.1748 26.252 62.4468 26.252ZM101.072 1.088V26H97.7957V7.424L89.5157 26H87.2117L78.8957 7.388V26H75.6197V1.088H79.1477L88.3637 21.68L97.5797 1.088H101.072ZM123.403 8.252C123.403 10.34 122.683 12.08 121.243 13.472C119.827 14.84 117.655 15.524 114.727 15.524H109.903V26H106.627V0.907999H114.727C117.559 0.907999 119.707 1.592 121.171 2.96C122.659 4.328 123.403 6.092 123.403 8.252ZM114.727 12.824C116.551 12.824 117.895 12.428 118.759 11.636C119.623 10.844 120.055 9.716 120.055 8.252C120.055 5.156 118.279 3.608 114.727 3.608H109.903V12.824H114.727ZM130.859 21.464L126.827 31.148H124.631L127.259 21.464H130.859ZM142.568 26.252C140.912 26.252 139.424 25.964 138.104 25.388C136.808 24.788 135.788 23.972 135.044 22.94C134.3 21.884 133.916 20.672 133.892 19.304H137.384C137.504 20.48 137.984 21.476 138.824 22.292C139.688 23.084 140.936 23.48 142.568 23.48C144.128 23.48 145.352 23.096 146.24 22.328C147.152 21.536 147.608 20.528 147.608 19.304C147.608 18.344 147.344 17.564 146.816 16.964C146.288 16.364 145.628 15.908 144.836 15.596C144.044 15.284 142.976 14.948 141.632 14.588C139.976 14.156 138.644 13.724 137.636 13.292C136.652 12.86 135.8 12.188 135.08 11.276C134.384 10.34 134.036 9.092 134.036 7.532C134.036 6.164 134.384 4.952 135.08 3.896C135.776 2.84 136.748 2.024 137.996 1.448C139.268 0.871999 140.72 0.583999 142.352 0.583999C144.704 0.583999 146.624 1.172 148.112 2.348C149.624 3.524 150.476 5.084 150.668 7.028H147.068C146.948 6.068 146.444 5.228 145.556 4.508C144.668 3.764 143.492 3.392 142.028 3.392C140.66 3.392 139.544 3.752 138.68 4.472C137.816 5.168 137.384 6.152 137.384 7.424C137.384 8.336 137.636 9.08 138.14 9.656C138.668 10.232 139.304 10.676 140.048 10.988C140.816 11.276 141.884 11.612 143.252 11.996C144.908 12.452 146.24 12.908 147.248 13.364C148.256 13.796 149.12 14.48 149.84 15.416C150.56 16.328 150.92 17.576 150.92 19.16C150.92 20.384 150.596 21.536 149.948 22.616C149.3 23.696 148.34 24.572 147.068 25.244C145.796 25.916 144.296 26.252 142.568 26.252ZM181.193 1.088V26H177.917V7.424L169.637 26H167.333L159.017 7.388V26H155.741V1.088H159.269L168.485 21.68L177.701 1.088H181.193ZM201.581 20.42H190.637L188.621 26H185.165L194.237 1.052H198.017L207.053 26H203.597L201.581 20.42ZM200.645 17.756L196.109 5.084L191.573 17.756H200.645Z" fill="black"/>
</svg>
